<?xml version="1.0" encoding="UTF-8"?>
<!DOCTYPE svg PUBLIC "-//W3C//DTD SVG 1.1//EN" "http://www.w3.org/Graphics/SVG/1.1/DTD/svg11.dtd">
<!-- Creator: CorelDRAW X6 -->
<svg xmlns="http://www.w3.org/2000/svg" xml:space="preserve" width="914.4mm" height="609.6mm" version="1.1" style="shape-rendering:geometricPrecision; text-rendering:geometricPrecision; image-rendering:optimizeQuality; fill-rule:evenodd; clip-rule:evenodd"
viewBox="0 0 91440 60960"
 xmlns:xlink="http://www.w3.org/1999/xlink">
 <defs>
  <style type="text/css">
   <![CDATA[
    .str0 {stroke:#373435;stroke-width:7.62}
    .str1 {stroke:#373435;stroke-width:200}
    .fil1 {fill:none}
    .fil0 {fill:#373435;fill-rule:nonzero}
   ]]>
  </style>
 </defs>
 <g id="ACRYL">
  <metadata id="CorelCorpID_0Corel-Layer"/>
  <path class="fil0" d="M15854 -3107l0 -1819 686 0c121,0 213,6 277,17 90,15 165,43 225,85 61,42 109,100 146,175 37,75 55,158 55,248 0,154 -49,285 -148,391 -98,108 -276,161 -533,161l-467 0 0 742 -241 0zm241 -956l470 0c156,0 266,-28 331,-86 66,-58 98,-140 98,-245 0,-76 -19,-141 -57,-195 -39,-54 -90,-90 -152,-108 -41,-10 -116,-16 -225,-16l-465 0 0 650z"/>
  <polygon id="1" class="fil0" points="17553,-3107 17553,-4926 18866,-4926 18866,-4713 17794,-4713 17794,-4154 18798,-4154 18798,-3941 17794,-3941 17794,-3321 18909,-3321 18909,-3107 "/>
  <polygon id="2" class="fil0" points="19704,-3107 19704,-4713 19105,-4713 19105,-4926 20545,-4926 20545,-4713 19946,-4713 19946,-3107 "/>
  <polygon id="3" class="fil0" points="20537,-3654 20537,-3877 21228,-3877 21228,-3654 "/>
  <path id="4" class="fil0" d="M22350 -3821l0 -214 770 0 0 674c-118,94 -240,165 -366,213 -126,47 -255,71 -387,71 -178,0 -341,-38 -487,-115 -145,-76 -256,-187 -330,-331 -74,-145 -112,-307 -112,-485 0,-177 37,-342 111,-496 74,-153 181,-267 320,-341 138,-74 298,-112 480,-112 131,0 250,22 356,64 106,43 190,102 250,178 60,76 106,176 137,298l-217 59c-27,-92 -61,-165 -101,-218 -41,-53 -99,-95 -174,-127 -75,-32 -158,-48 -250,-48 -110,0 -205,17 -285,51 -80,33 -144,77 -194,132 -49,55 -87,115 -114,180 -46,113 -70,235 -70,367 0,162 28,298 84,408 56,109 137,190 243,243 107,53 220,80 340,80 104,0 205,-21 304,-61 100,-41 174,-83 226,-129l0 -341 -534 0z"/>
  <path id="5" class="fil0" d="M25263 -3321l0 214 -1204 0c-2,-54 7,-106 26,-156 31,-82 81,-162 149,-242 68,-79 165,-170 292,-274 197,-162 330,-290 400,-385 71,-95 106,-185 106,-269 0,-89 -32,-163 -96,-224 -63,-61 -146,-91 -248,-91 -108,0 -194,32 -259,96 -65,64 -98,153 -98,267l-229 -23c16,-171 75,-301 177,-391 103,-90 241,-135 414,-135 174,0 313,49 414,145 102,97 153,218 153,361 0,73 -15,144 -45,214 -29,71 -79,145 -148,223 -69,78 -184,185 -344,320 -134,113 -220,189 -259,229 -38,40 -69,81 -94,121l893 0z"/>
  <path id="6" class="fil0" d="M25565 -3107l0 -1319 201 0 0 187c41,-65 96,-117 165,-156 68,-39 146,-59 234,-59 97,0 177,21 240,61 62,41 106,97 131,170 105,-154 241,-231 409,-231 131,0 232,36 302,109 71,72 107,183 107,334l0 904 -224 0 0 -830c0,-89 -7,-153 -22,-193 -14,-39 -41,-71 -79,-95 -38,-24 -83,-36 -134,-36 -93,0 -170,31 -232,93 -61,61 -92,160 -92,296l0 765 -223 0 0 -856c0,-99 -18,-174 -55,-223 -36,-50 -96,-75 -178,-75 -63,0 -121,17 -174,50 -54,33 -92,81 -116,145 -24,64 -36,155 -36,275l0 684 -224 0z"/>
  <path id="7" class="fil0" d="M27681 -3107l0 -1319 201 0 0 187c41,-65 96,-117 165,-156 68,-39 146,-59 234,-59 97,0 177,21 239,61 63,41 107,97 132,170 105,-154 241,-231 409,-231 131,0 232,36 302,109 71,72 106,183 106,334l0 904 -223 0 0 -830c0,-89 -8,-153 -22,-193 -14,-39 -41,-71 -79,-95 -38,-24 -83,-36 -134,-36 -94,0 -171,31 -232,93 -61,61 -92,160 -92,296l0 765 -223 0 0 -856c0,-99 -19,-174 -55,-223 -36,-50 -96,-75 -179,-75 -62,0 -120,17 -174,50 -53,33 -91,81 -116,145 -23,64 -35,155 -35,275l0 684 -224 0z"/>
  <path id="8" class="fil0" d="M16603 2568l-223 0 0 -1423c-54,51 -125,102 -212,154 -87,51 -166,89 -235,115l0 -216c124,-59 234,-130 327,-214 94,-83 160,-164 199,-242l144 0 0 1826z"/>
  <path id="9" class="fil0" d="M17150 2174l221 -35c12,88 47,156 103,203 57,47 137,71 238,71 103,0 179,-21 229,-63 50,-41 75,-90 75,-147 0,-50 -23,-90 -67,-119 -31,-20 -108,-45 -229,-75 -163,-42 -276,-77 -340,-107 -63,-31 -111,-72 -143,-125 -33,-53 -49,-112 -49,-177 0,-58 13,-113 40,-163 27,-49 63,-91 110,-124 34,-25 82,-47 141,-65 61,-18 124,-26 193,-26 103,0 194,14 272,44 78,30 136,71 173,122 37,51 63,119 77,204l-219 31c-10,-69 -38,-122 -86,-161 -47,-39 -114,-58 -201,-58 -102,0 -175,17 -219,51 -43,34 -65,74 -65,119 0,29 9,55 27,79 18,23 46,43 85,59 23,8 88,27 197,57 158,42 268,77 330,103 63,27 112,66 148,117 36,51 53,115 53,191 0,74 -21,144 -65,210 -43,65 -106,116 -188,152 -82,36 -175,54 -278,54 -171,0 -302,-36 -392,-107 -89,-71 -146,-176 -171,-315z"/>
  <path id="10" class="fil0" d="M18994 2368l30 198c-63,13 -119,20 -168,20 -81,0 -143,-13 -188,-39 -45,-26 -76,-59 -94,-101 -18,-42 -27,-130 -27,-264l0 -760 -165 0 0 -172 165 0 0 -326 223 -135 0 461 224 0 0 172 -224 0 0 772c0,64 4,105 12,124 8,18 20,32 38,43 18,11 43,16 76,16 25,0 57,-3 98,-9z"/>
  <path id="11" class="fil0" d="M20573 2568l0 -435 -790 0 0 -205 830 -1179 183 0 0 1179 247 0 0 205 -247 0 0 435 -223 0zm0 -640l0 -819 -571 819 571 0z"/>
  <path id="12" class="fil0" d="M21272 1670c0,-214 22,-388 66,-519 44,-132 110,-233 197,-304 87,-70 196,-105 328,-105 98,0 183,19 257,58 74,40 135,96 182,171 48,73 85,163 112,270 28,106 41,249 41,429 0,214 -22,386 -65,518 -44,131 -110,232 -197,304 -87,71 -197,106 -330,106 -174,0 -312,-62 -412,-187 -120,-152 -179,-399 -179,-741zm228 1c0,299 35,498 105,597 70,98 156,147 258,147 103,0 189,-49 259,-148 70,-99 105,-297 105,-596 0,-299 -35,-498 -105,-596 -69,-99 -157,-148 -261,-148 -103,0 -185,44 -246,130 -77,111 -115,316 -115,614z"/>
  <path id="13" class="fil0" d="M22725 1186c0,-130 33,-240 98,-331 66,-91 161,-136 285,-136 114,0 209,40 284,122 75,81 113,201 113,358 0,154 -38,272 -114,355 -76,83 -170,125 -280,125 -111,0 -203,-41 -276,-123 -73,-82 -110,-205 -110,-370zm389 -312c-55,0 -101,23 -138,71 -37,48 -55,136 -55,263 0,116 18,198 55,245 38,47 84,71 138,71 57,0 103,-24 140,-72 37,-48 55,-135 55,-261 0,-117 -19,-199 -56,-246 -37,-48 -83,-71 -139,-71zm2 1760l992 -1915 182 0 -990 1915 -184 0zm782 -493c0,-131 33,-241 99,-332 65,-90 160,-135 285,-135 114,0 209,40 284,122 75,81 112,201 112,358 0,154 -37,272 -113,355 -76,83 -170,125 -282,125 -110,0 -201,-41 -275,-123 -73,-83 -110,-206 -110,-370zm390 -312c-56,0 -102,23 -139,71 -37,48 -55,136 -55,263 0,115 19,196 56,244 37,48 82,72 137,72 57,0 104,-24 141,-72 36,-48 55,-135 55,-261 0,-117 -19,-199 -56,-246 -37,-48 -83,-71 -139,-71z"/>
  <path id="14" class="fil0" d="M25621 2174l221 -35c12,88 46,156 103,203 57,47 137,71 238,71 103,0 179,-21 229,-63 50,-41 75,-90 75,-147 0,-50 -23,-90 -67,-119 -32,-20 -108,-45 -229,-75 -163,-42 -276,-77 -340,-107 -63,-31 -111,-72 -143,-125 -33,-53 -49,-112 -49,-177 0,-58 13,-113 40,-163 27,-49 63,-91 109,-124 35,-25 83,-47 142,-65 60,-18 124,-26 193,-26 103,0 194,14 272,44 78,30 136,71 173,122 37,51 62,119 76,204l-218 31c-10,-69 -38,-122 -86,-161 -47,-39 -114,-58 -201,-58 -102,0 -175,17 -219,51 -43,34 -65,74 -65,119 0,29 8,55 27,79 18,23 46,43 85,59 23,8 88,27 197,57 157,42 268,77 330,103 63,27 112,66 148,117 35,51 53,115 53,191 0,74 -21,144 -65,210 -44,65 -106,116 -188,152 -82,36 -175,54 -278,54 -171,0 -302,-36 -392,-107 -89,-71 -146,-176 -171,-315z"/>
  <path id="15" class="fil0" d="M26979 3073l0 -1823 204 0 0 173c47,-67 102,-118 162,-151 60,-34 134,-50 219,-50 113,0 212,28 298,86 86,58 151,140 195,245 43,105 65,220 65,346 0,134 -24,255 -72,363 -48,108 -118,190 -211,248 -92,57 -189,86 -290,86 -75,0 -142,-16 -200,-47 -60,-32 -108,-71 -146,-119l0 643 -224 0zm204 -1156c0,169 34,293 102,374 69,81 152,122 249,122 99,0 184,-42 254,-126 71,-84 106,-213 106,-389 0,-168 -34,-293 -103,-376 -69,-84 -152,-125 -247,-125 -95,0 -179,44 -252,133 -73,89 -109,217 -109,387z"/>
  <path id="16" class="fil0" d="M29291 2141l231 31c-36,134 -103,238 -201,312 -98,74 -224,112 -376,112 -193,0 -345,-60 -458,-178 -112,-118 -169,-285 -169,-498 0,-221 57,-393 171,-515 114,-122 262,-183 443,-183 176,0 319,59 431,179 111,120 167,288 167,506 0,13 0,33 -1,59l-982 0c8,144 49,255 123,332 73,76 165,115 275,115 81,0 151,-22 209,-65 58,-43 103,-112 137,-207zm-731 -358l734 0c-10,-111 -38,-194 -84,-249 -71,-86 -163,-130 -276,-130 -103,0 -189,35 -259,103 -69,69 -108,161 -115,276z"/>
  <path id="17" class="fil0" d="M30704 2141l231 31c-36,134 -103,238 -201,312 -99,74 -224,112 -377,112 -192,0 -344,-60 -457,-178 -113,-118 -169,-285 -169,-498 0,-221 57,-393 171,-515 114,-122 261,-183 443,-183 176,0 319,59 430,179 112,120 168,288 168,506 0,13 -1,33 -2,59l-981 0c8,144 49,255 122,332 74,76 166,115 275,115 82,0 152,-22 209,-65 58,-43 104,-112 138,-207zm-732 -358l734 0c-9,-111 -38,-194 -84,-249 -70,-86 -163,-130 -276,-130 -102,0 -188,35 -258,103 -69,69 -108,161 -116,276z"/>
  <path id="18" class="fil0" d="M32068 2568l0 -167c-83,130 -206,195 -368,195 -105,0 -202,-29 -289,-87 -88,-58 -156,-139 -205,-242 -48,-104 -72,-222 -72,-357 0,-131 22,-250 65,-357 44,-107 110,-189 197,-246 88,-57 186,-85 294,-85 79,0 150,16 212,50 62,33 112,77 151,131l0 -654 224 0 0 1819 -209 0zm-706 -658c0,169 36,295 107,378 71,83 156,125 253,125 97,0 180,-40 249,-120 68,-79 102,-201 102,-364 0,-180 -34,-312 -104,-396 -70,-84 -156,-126 -258,-126 -99,0 -182,40 -249,121 -66,81 -100,208 -100,382z"/>
  <path id="19" class="fil0" d="M32688 2568l0 -254 254 0 0 254c0,93 -16,169 -49,227 -33,57 -86,102 -159,133l-61 -96c48,-21 82,-51 104,-91 23,-40 36,-98 38,-173l-127 0z"/>
  <path id="20" class="fil0" d="M34819 2568l-224 0 0 -1423c-54,51 -124,102 -211,154 -88,51 -166,89 -236,115l0 -216c125,-59 234,-130 328,-214 93,-83 160,-164 199,-242l144 0 0 1826z"/>
  <path id="21" class="fil0" d="M35393 1670c0,-214 22,-388 66,-519 45,-132 110,-233 197,-304 87,-70 197,-105 329,-105 97,0 183,19 257,58 74,40 135,96 182,171 47,73 85,163 112,270 27,106 41,249 41,429 0,214 -22,386 -66,518 -43,131 -109,232 -196,304 -87,71 -197,106 -330,106 -175,0 -312,-62 -412,-187 -120,-152 -180,-399 -180,-741zm229 1c0,299 34,498 104,597 70,98 157,147 259,147 102,0 189,-49 259,-148 69,-99 104,-297 104,-596 0,-299 -35,-498 -104,-596 -70,-99 -157,-148 -262,-148 -102,0 -184,44 -246,130 -76,111 -114,316 -114,614z"/>
  <path id="22" class="fil0" d="M36806 1670c0,-214 22,-388 66,-519 44,-132 110,-233 197,-304 87,-70 197,-105 329,-105 97,0 183,19 257,58 73,40 134,96 182,171 47,73 84,163 111,270 28,106 41,249 41,429 0,214 -22,386 -65,518 -44,131 -109,232 -197,304 -86,71 -196,106 -329,106 -175,0 -313,-62 -413,-187 -119,-152 -179,-399 -179,-741zm228 1c0,299 35,498 105,597 70,98 156,147 259,147 102,0 188,-49 258,-148 70,-99 105,-297 105,-596 0,-299 -35,-498 -105,-596 -69,-99 -156,-148 -261,-148 -102,0 -184,44 -246,130 -76,111 -115,316 -115,614z"/>
  <path id="23" class="fil0" d="M38259 1186c0,-130 33,-240 98,-331 66,-91 161,-136 285,-136 115,0 209,40 284,122 75,81 113,201 113,358 0,154 -38,272 -114,355 -76,83 -169,125 -280,125 -111,0 -203,-41 -276,-123 -73,-82 -110,-205 -110,-370zm390 -312c-56,0 -102,23 -139,71 -37,48 -55,136 -55,263 0,116 18,198 56,245 37,47 83,71 138,71 56,0 102,-24 139,-72 37,-48 55,-135 55,-261 0,-117 -18,-199 -56,-246 -37,-48 -83,-71 -138,-71zm1 1760l992 -1915 182 0 -990 1915 -184 0zm783 -493c0,-131 32,-241 98,-332 65,-90 160,-135 285,-135 114,0 209,40 284,122 75,81 112,201 112,358 0,154 -37,272 -113,355 -76,83 -170,125 -282,125 -110,0 -201,-41 -274,-123 -74,-83 -110,-206 -110,-370zm389 -312c-56,0 -102,23 -139,71 -37,48 -55,136 -55,263 0,115 19,196 56,244 37,48 83,72 137,72 57,0 104,-24 141,-72 37,-48 55,-135 55,-261 0,-117 -19,-199 -56,-246 -37,-48 -83,-71 -139,-71z"/>
  <path id="24" class="fil0" d="M40596 2568l0 -254 254 0 0 254c0,93 -16,169 -50,227 -33,57 -86,102 -158,133l-61 -96c48,-21 82,-51 104,-91 23,-40 35,-98 38,-173l-127 0z"/>
  <path id="25" class="fil0" d="M41888 2090l234 -18c17,114 58,200 120,257 63,58 140,86 230,86 109,0 200,-40 274,-121 73,-81 110,-189 110,-323 0,-127 -35,-227 -106,-301 -70,-74 -164,-111 -280,-111 -73,0 -138,17 -195,50 -57,33 -102,76 -135,128l-211 -30 175 -935 902 0 0 213 -724 0 -96 491c108,-77 223,-115 342,-115 158,0 292,55 401,165 109,110 163,252 163,425 0,164 -48,306 -143,426 -117,148 -276,221 -477,221 -165,0 -300,-46 -405,-139 -104,-93 -164,-216 -179,-369z"/>
  <path id="26" class="fil0" d="M43301 1670c0,-214 22,-388 66,-519 45,-132 110,-233 197,-304 87,-70 197,-105 329,-105 97,0 183,19 257,58 73,40 134,96 182,171 47,73 85,163 112,270 27,106 41,249 41,429 0,214 -22,386 -66,518 -44,131 -109,232 -196,304 -87,71 -197,106 -330,106 -175,0 -313,-62 -412,-187 -120,-152 -180,-399 -180,-741zm229 1c0,299 34,498 104,597 70,98 156,147 259,147 102,0 189,-49 259,-148 69,-99 104,-297 104,-596 0,-299 -35,-498 -104,-596 -70,-99 -157,-148 -262,-148 -102,0 -184,44 -246,130 -76,111 -114,316 -114,614z"/>
  <path id="27" class="fil0" d="M44714 1670c0,-214 22,-388 66,-519 44,-132 110,-233 197,-304 87,-70 196,-105 329,-105 97,0 182,19 256,58 74,40 135,96 183,171 47,73 84,163 111,270 28,106 41,249 41,429 0,214 -22,386 -65,518 -44,131 -110,232 -197,304 -87,71 -197,106 -329,106 -175,0 -313,-62 -413,-187 -120,-152 -179,-399 -179,-741zm228 1c0,299 35,498 105,597 70,98 156,147 259,147 102,0 188,-49 258,-148 70,-99 105,-297 105,-596 0,-299 -35,-498 -105,-596 -69,-99 -156,-148 -261,-148 -102,0 -185,44 -246,130 -77,111 -115,316 -115,614z"/>
  <path id="28" class="fil0" d="M46126 1670c0,-214 22,-388 66,-519 45,-132 110,-233 198,-304 86,-70 196,-105 328,-105 98,0 183,19 257,58 74,40 135,96 182,171 48,73 85,163 112,270 27,106 41,249 41,429 0,214 -22,386 -66,518 -43,131 -109,232 -196,304 -87,71 -197,106 -330,106 -175,0 -312,-62 -412,-187 -120,-152 -180,-399 -180,-741zm229 1c0,299 35,498 105,597 69,98 156,147 258,147 103,0 189,-49 259,-148 70,-99 104,-297 104,-596 0,-299 -34,-498 -104,-596 -70,-99 -157,-148 -261,-148 -103,0 -185,44 -246,130 -77,111 -115,316 -115,614z"/>
  <path id="29" class="fil0" d="M47600 2568l0 -1819 223 0 0 655c104,-122 235,-182 393,-182 97,0 182,19 253,57 72,39 123,92 154,159 31,68 46,167 46,295l0 835 -223 0 0 -834c0,-111 -24,-192 -72,-243 -48,-51 -116,-76 -204,-76 -66,0 -128,17 -186,51 -58,34 -99,81 -124,140 -24,58 -37,139 -37,242l0 720 -223 0z"/>
  <path id="30" class="fil0" d="M48895 2568l0 -182 834 -964c-94,5 -178,8 -250,8l-534 0 0 -180 1075 0 0 146 -715 836 -137 155c101,-8 195,-12 282,-12l610 0 0 193 -1165 0z"/>
  <path id="31" class="fil0" d="M16936 5192l0 213 -1204 0c-2,-53 7,-105 26,-155 31,-82 81,-163 149,-242 68,-79 165,-170 292,-274 197,-162 330,-290 400,-385 71,-95 106,-185 106,-270 0,-88 -32,-162 -96,-223 -63,-61 -146,-91 -248,-91 -108,0 -194,32 -259,96 -65,64 -97,153 -98,267l-229 -23c16,-171 75,-302 177,-391 103,-90 241,-135 414,-135 174,0 313,48 414,145 103,97 153,217 153,361 0,72 -15,144 -45,214 -29,71 -79,145 -148,223 -69,77 -184,184 -344,320 -134,113 -220,189 -259,229 -38,40 -69,80 -94,121l893 0z"/>
  <path id="32" class="fil0" d="M17239 5405l0 -1318 200 0 0 187c97,-143 236,-215 419,-215 79,0 152,15 219,43 66,28 116,66 149,112 33,46 56,101 70,165 8,41 12,114 12,217l0 809 -224 0 0 -801c0,-91 -8,-159 -25,-204 -18,-44 -49,-80 -93,-108 -44,-26 -96,-40 -155,-40 -95,0 -177,30 -246,91 -69,60 -103,175 -103,343l0 719 -223 0z"/>
  <path id="33" class="fil0" d="M19502 5405l0 -167c-83,130 -206,195 -368,195 -105,0 -202,-28 -289,-86 -88,-58 -157,-139 -205,-242 -49,-104 -73,-223 -73,-357 0,-132 22,-251 66,-358 44,-106 110,-189 197,-245 87,-57 186,-86 294,-86 79,0 150,17 212,51 62,33 112,77 151,131l0 -654 223 0 0 1818 -208 0zm-706 -657c0,168 36,294 107,378 71,83 155,124 252,124 98,0 181,-39 250,-119 68,-80 102,-201 102,-364 0,-180 -35,-312 -104,-396 -70,-84 -156,-126 -258,-126 -99,0 -182,40 -249,121 -67,81 -100,208 -100,382z"/>
  <path id="34" class="fil0" d="M21547 5405l-224 0 0 -1423c-53,52 -124,103 -211,154 -88,51 -166,90 -236,115l0 -216c125,-58 234,-129 328,-213 93,-83 160,-164 199,-243l144 0 0 1826z"/>
  <path id="35" class="fil0" d="M22121 4508c0,-215 22,-388 66,-520 45,-131 110,-232 198,-303 86,-71 196,-106 328,-106 97,0 183,20 257,59 74,39 135,96 182,170 47,74 85,164 112,270 27,106 41,250 41,430 0,213 -22,386 -66,517 -43,132 -109,233 -196,304 -87,71 -197,107 -330,107 -175,0 -312,-62 -412,-187 -120,-153 -180,-399 -180,-741zm229 1c0,299 35,498 104,596 70,99 157,148 259,148 103,0 189,-50 259,-148 70,-99 104,-298 104,-596 0,-300 -34,-499 -104,-597 -70,-98 -157,-147 -261,-147 -103,0 -185,43 -246,130 -77,110 -115,315 -115,614z"/>
  <path id="36" class="fil0" d="M23534 4508c0,-215 22,-388 66,-520 44,-131 110,-232 197,-303 87,-71 197,-106 329,-106 97,0 183,20 257,59 73,39 134,96 182,170 47,74 84,164 111,270 28,106 42,250 42,430 0,213 -22,386 -66,517 -44,132 -109,233 -196,304 -87,71 -197,107 -330,107 -175,0 -313,-62 -413,-187 -119,-153 -179,-399 -179,-741zm229 1c0,299 34,498 104,596 70,99 156,148 259,148 102,0 189,-50 258,-148 70,-99 105,-298 105,-596 0,-300 -35,-499 -105,-597 -69,-98 -156,-147 -261,-147 -102,0 -184,43 -246,130 -76,110 -114,315 -114,614z"/>
  <path id="37" class="fil0" d="M24987 4023c0,-129 33,-240 98,-330 66,-91 161,-137 285,-137 115,0 209,41 284,122 75,81 113,201 113,359 0,153 -38,272 -114,355 -76,83 -169,124 -280,124 -111,0 -202,-41 -276,-122 -73,-82 -110,-206 -110,-371zm390 -312c-56,0 -102,24 -139,72 -37,48 -55,135 -55,263 0,116 18,197 56,244 37,48 83,71 138,71 56,0 103,-23 139,-71 37,-48 55,-135 55,-262 0,-117 -18,-199 -55,-246 -38,-47 -84,-71 -139,-71zm1 1760l992 -1915 182 0 -989 1915 -185 0zm783 -493c0,-130 32,-241 98,-331 65,-90 160,-136 285,-136 115,0 209,41 284,122 75,81 112,201 112,359 0,153 -37,272 -113,355 -76,83 -170,124 -282,124 -110,0 -201,-41 -274,-123 -73,-82 -110,-206 -110,-370zm390 -312c-57,0 -103,24 -140,72 -37,48 -55,135 -55,263 0,115 19,196 56,244 37,48 83,71 137,71 57,0 104,-23 141,-71 37,-48 55,-135 55,-262 0,-117 -19,-199 -56,-246 -37,-47 -83,-71 -138,-71z"/>
  <path id="38" class="fil0" d="M27883 5012l221 -36c12,89 47,156 104,204 56,47 136,70 237,70 103,0 179,-20 229,-62 50,-42 75,-91 75,-147 0,-50 -22,-90 -67,-119 -31,-20 -107,-45 -229,-76 -163,-41 -276,-76 -339,-107 -64,-30 -111,-71 -144,-125 -33,-53 -49,-112 -49,-176 0,-59 13,-113 40,-163 27,-50 64,-91 110,-124 34,-26 82,-47 142,-65 60,-18 124,-27 192,-27 103,0 194,15 272,45 78,30 136,70 173,121 37,51 63,120 77,205l-219 30c-9,-68 -38,-122 -86,-160 -47,-39 -114,-58 -201,-58 -102,0 -175,17 -219,51 -43,34 -65,74 -65,119 0,29 9,55 27,78 18,24 46,44 85,59 23,9 88,28 197,58 158,41 268,76 330,103 63,27 112,66 148,117 36,51 54,114 54,191 0,74 -22,144 -66,209 -43,66 -106,117 -188,153 -82,36 -174,53 -278,53 -171,0 -302,-35 -391,-106 -90,-71 -147,-176 -172,-315z"/>
  <path id="39" class="fil0" d="M29242 5911l0 -1824 203 0 0 173c48,-67 102,-117 162,-150 61,-34 134,-51 220,-51 112,0 211,29 297,87 86,58 151,139 195,244 44,106 66,221 66,347 0,134 -24,255 -73,363 -48,107 -118,190 -211,247 -91,58 -188,86 -290,86 -74,0 -141,-15 -200,-47 -59,-31 -108,-70 -146,-118l0 643 -223 0zm203 -1157c0,169 34,294 102,375 69,81 152,121 249,121 99,0 184,-41 254,-125 71,-84 106,-214 106,-389 0,-168 -34,-293 -103,-377 -69,-83 -151,-125 -247,-125 -95,0 -179,45 -251,133 -74,89 -110,218 -110,387z"/>
  <path id="40" class="fil0" d="M31554 4979l231 30c-36,134 -104,239 -202,313 -98,74 -223,111 -376,111 -192,0 -345,-59 -457,-177 -113,-119 -169,-285 -169,-499 0,-221 56,-393 170,-515 114,-122 262,-183 444,-183 175,0 319,60 430,180 111,119 167,288 167,505 0,13 0,33 -1,59l-982 0c9,145 49,256 123,332 73,77 165,115 275,115 82,0 151,-21 209,-64 58,-44 104,-113 138,-207zm-732 -358l734 0c-10,-111 -38,-194 -84,-250 -71,-86 -163,-129 -276,-129 -103,0 -189,34 -258,103 -70,69 -108,160 -116,276z"/>
  <path id="41" class="fil0" d="M32966 4979l231 30c-36,134 -103,239 -201,313 -98,74 -224,111 -377,111 -192,0 -344,-59 -457,-177 -112,-119 -169,-285 -169,-499 0,-221 57,-393 171,-515 114,-122 262,-183 443,-183 176,0 319,60 431,180 111,119 167,288 167,505 0,13 0,33 -1,59l-982 0c8,145 49,256 123,332 73,77 165,115 274,115 82,0 152,-21 210,-64 58,-44 103,-113 137,-207zm-731 -358l734 0c-10,-111 -38,-194 -85,-250 -70,-86 -163,-129 -276,-129 -102,0 -188,34 -258,103 -69,69 -108,160 -115,276z"/>
  <path id="42" class="fil0" d="M34331 5405l0 -167c-84,130 -207,195 -369,195 -105,0 -201,-28 -289,-86 -88,-58 -156,-139 -205,-242 -48,-104 -72,-223 -72,-357 0,-132 22,-251 65,-358 45,-106 110,-189 198,-245 87,-57 185,-86 293,-86 80,0 150,17 212,51 62,33 112,77 151,131l0 -654 224 0 0 1818 -208 0zm-707 -657c0,168 36,294 108,378 71,83 155,124 252,124 98,0 181,-39 249,-119 68,-80 103,-201 103,-364 0,-180 -35,-312 -105,-396 -69,-84 -155,-126 -257,-126 -100,0 -183,40 -250,121 -66,81 -100,208 -100,382z"/>
  <path id="43" class="fil0" d="M34951 5405l0 -254 254 0 0 254c0,94 -17,170 -50,227 -33,58 -86,103 -159,134l-60 -96c47,-21 82,-52 104,-91 22,-41 35,-98 37,-174l-126 0z"/>
  <path id="44" class="fil0" d="M36375 5405l-223 0 0 -1423c-54,52 -125,103 -212,154 -87,51 -166,90 -235,115l0 -216c125,-58 234,-129 327,-213 94,-83 160,-164 199,-243l144 0 0 1826z"/>
  <path id="45" class="fil0" d="M36950 4508c0,-215 22,-388 66,-520 44,-131 110,-232 197,-303 87,-71 196,-106 329,-106 97,0 182,20 257,59 73,39 134,96 182,170 47,74 84,164 111,270 28,106 41,250 41,430 0,213 -22,386 -65,517 -44,132 -109,233 -197,304 -86,71 -197,107 -329,107 -175,0 -313,-62 -413,-187 -120,-153 -179,-399 -179,-741zm228 1c0,299 35,498 105,596 70,99 156,148 259,148 102,0 188,-50 258,-148 70,-99 105,-298 105,-596 0,-300 -35,-499 -105,-597 -69,-98 -156,-147 -261,-147 -102,0 -185,43 -246,130 -77,110 -115,315 -115,614z"/>
  <path id="46" class="fil0" d="M38362 4508c0,-215 22,-388 66,-520 45,-131 111,-232 198,-303 87,-71 196,-106 328,-106 98,0 183,20 257,59 74,39 135,96 182,170 48,74 85,164 112,270 27,106 41,250 41,430 0,213 -22,386 -66,517 -43,132 -109,233 -196,304 -87,71 -197,107 -330,107 -175,0 -312,-62 -412,-187 -120,-153 -180,-399 -180,-741zm229 1c0,299 35,498 105,596 69,99 156,148 258,148 103,0 189,-50 259,-148 70,-99 104,-298 104,-596 0,-300 -34,-499 -104,-597 -70,-98 -157,-147 -261,-147 -103,0 -185,43 -246,130 -77,110 -115,315 -115,614z"/>
  <path id="47" class="fil0" d="M39816 4023c0,-129 32,-240 98,-330 66,-91 160,-137 285,-137 114,0 209,41 284,122 75,81 112,201 112,359 0,153 -38,272 -113,355 -76,83 -170,124 -281,124 -110,0 -202,-41 -275,-122 -73,-82 -110,-206 -110,-371zm389 -312c-55,0 -101,24 -138,72 -37,48 -56,135 -56,263 0,116 19,197 56,244 37,48 84,71 138,71 56,0 103,-23 140,-71 37,-48 55,-135 55,-262 0,-117 -19,-199 -56,-246 -37,-47 -83,-71 -139,-71zm1 1760l992 -1915 182 0 -989 1915 -185 0zm783 -493c0,-130 33,-241 98,-331 66,-90 161,-136 286,-136 114,0 209,41 284,122 75,81 112,201 112,359 0,153 -38,272 -113,355 -76,83 -170,124 -282,124 -110,0 -202,-41 -275,-123 -73,-82 -110,-206 -110,-370zm390 -312c-56,0 -102,24 -139,72 -37,48 -55,135 -55,263 0,115 18,196 56,244 36,48 82,71 137,71 57,0 104,-23 140,-71 37,-48 55,-135 55,-262 0,-117 -18,-199 -55,-246 -37,-47 -83,-71 -139,-71z"/>
  <path id="48" class="fil0" d="M42153 5405l0 -254 254 0 0 254c0,94 -17,170 -50,227 -33,58 -86,103 -158,134l-61 -96c47,-21 82,-52 104,-91 22,-41 35,-98 38,-174l-127 0z"/>
  <path id="49" class="fil0" d="M42739 4928l234 -18c17,114 57,199 120,257 63,57 139,86 230,86 108,0 199,-41 273,-122 74,-81 111,-188 111,-322 0,-128 -35,-228 -106,-302 -71,-73 -164,-110 -281,-110 -72,0 -137,17 -194,50 -57,33 -102,75 -135,128l-211 -31 175 -934 902 0 0 213 -724 0 -97 491c109,-77 224,-115 343,-115 158,0 292,55 401,165 109,110 163,251 163,424 0,165 -48,307 -143,427 -117,147 -276,221 -477,221 -166,0 -300,-47 -405,-139 -104,-93 -164,-216 -179,-369z"/>
  <path id="50" class="fil0" d="M44152 4508c0,-215 22,-388 66,-520 44,-131 110,-232 197,-303 87,-71 197,-106 329,-106 97,0 183,20 257,59 73,39 134,96 182,170 47,74 84,164 111,270 28,106 42,250 42,430 0,213 -22,386 -66,517 -44,132 -109,233 -196,304 -87,71 -197,107 -330,107 -175,0 -313,-62 -413,-187 -119,-153 -179,-399 -179,-741zm229 1c0,299 34,498 104,596 70,99 156,148 259,148 102,0 189,-50 258,-148 70,-99 105,-298 105,-596 0,-300 -35,-499 -105,-597 -69,-98 -156,-147 -261,-147 -102,0 -184,43 -246,130 -76,110 -114,315 -114,614z"/>
  <path id="51" class="fil0" d="M45565 4508c0,-215 22,-388 66,-520 44,-131 110,-232 197,-303 87,-71 196,-106 328,-106 98,0 183,20 257,59 74,39 135,96 182,170 48,74 85,164 112,270 28,106 41,250 41,430 0,213 -22,386 -65,517 -44,132 -110,233 -197,304 -87,71 -197,107 -330,107 -174,0 -312,-62 -412,-187 -120,-153 -179,-399 -179,-741zm228 1c0,299 35,498 105,596 70,99 156,148 258,148 103,0 189,-50 259,-148 70,-99 105,-298 105,-596 0,-300 -35,-499 -105,-597 -69,-98 -157,-147 -261,-147 -103,0 -185,43 -246,130 -77,110 -115,315 -115,614z"/>
  <path id="52" class="fil0" d="M46977 4508c0,-215 22,-388 66,-520 45,-131 110,-232 198,-303 86,-71 196,-106 328,-106 97,0 183,20 257,59 74,39 135,96 182,170 47,74 85,164 112,270 27,106 41,250 41,430 0,213 -22,386 -66,517 -43,132 -109,233 -196,304 -87,71 -197,107 -330,107 -175,0 -312,-62 -412,-187 -120,-153 -180,-399 -180,-741zm229 1c0,299 35,498 104,596 70,99 157,148 259,148 102,0 189,-50 259,-148 70,-99 104,-298 104,-596 0,-300 -34,-499 -104,-597 -70,-98 -157,-147 -261,-147 -103,0 -185,43 -246,130 -77,110 -115,315 -115,614z"/>
  <path id="53" class="fil0" d="M48451 5405l0 -1818 223 0 0 654c104,-121 235,-182 393,-182 97,0 181,19 253,58 72,38 123,91 154,159 31,68 46,166 46,295l0 834 -223 0 0 -833c0,-112 -24,-193 -72,-244 -49,-50 -116,-76 -204,-76 -66,0 -128,17 -186,51 -58,35 -99,81 -124,140 -24,59 -37,139 -37,243l0 719 -223 0z"/>
  <path id="54" class="fil0" d="M49745 5405l0 -182 835 -963c-95,5 -178,7 -250,7l-534 0 0 -180 1075 0 0 147 -715 836 -137 155c101,-8 195,-13 282,-13l610 0 0 193 -1166 0z"/>
 </g>
 <g id="OUTLINE">
  <metadata id="CorelCorpID_1Corel-Layer"/>
  <g id="_785223568">
   <ellipse class="fil1 str0" transform="matrix(3.15879E-014 -1.19269 0.921618 2.44086E-014 45307.9 17518.5)" rx="1048" ry="1356"/>
   <rect class="fil1 str0" transform="matrix(1.88482E-014 -0.708661 0.553642 1.4601E-014 19301.3 28018.5)" width="29633" height="54187" rx="417" ry="417"/>
  </g>
  <polygon class="fil0" points="-18590,-5301 -18590,-7120 -18343,-7120 -18343,-6218 -17421,-7120 -17089,-7120 -17867,-6382 -17055,-5301 -17379,-5301 -18040,-6219 -18343,-5931 -18343,-5301 "/>
  <path id="1" class="fil0" d="M-17054 -5301l712 -1819 270 0 756 1819 -279 0 -215 -551 -782 0 -201 551 -261 0zm534 -747l633 0 -194 -504c-58,-153 -102,-280 -133,-380 -25,119 -59,235 -102,350l-204 534z"/>
  <path id="2" class="fil0" d="M-15116 -5301l0 -1819 823 0c165,0 291,17 377,49 86,33 155,90 206,173 52,83 77,174 77,274 0,129 -43,238 -128,326 -85,89 -216,145 -394,169 65,30 114,61 148,90 72,65 139,146 203,242l321 496 -307 0 -245 -379c-71,-109 -131,-193 -177,-251 -47,-58 -88,-98 -125,-121 -36,-23 -74,-39 -112,-48 -27,-6 -73,-9 -136,-9l-285 0 0 808 -246 0zm246 -1016l528 0c112,0 199,-12 262,-35 63,-22 111,-58 144,-109 33,-50 49,-104 49,-163 0,-86 -32,-157 -95,-212 -64,-56 -164,-83 -301,-83l-587 0 0 602z"/>
  <polygon id="3" class="fil0" points="-12824,-5301 -12824,-6906 -13435,-6906 -13435,-7120 -11966,-7120 -11966,-6906 -12577,-6906 -12577,-5301 "/>
  <path id="4" class="fil0" d="M-11834 -6186c0,-302 83,-538 249,-709 165,-170 379,-255 641,-255 171,0 325,40 463,120 138,80 243,192 315,335 72,143 108,306 108,487 0,185 -38,350 -114,495 -76,146 -184,256 -323,330 -139,75 -290,112 -451,112 -175,0 -331,-41 -469,-124 -137,-82 -242,-195 -312,-338 -71,-143 -107,-294 -107,-453zm254 4c0,219 60,391 181,517 120,125 270,189 452,189 185,0 337,-64 456,-191 119,-127 179,-307 179,-541 0,-148 -25,-277 -76,-387 -51,-110 -126,-196 -224,-256 -99,-61 -209,-91 -331,-91 -174,0 -323,58 -449,175 -125,117 -188,312 -188,585z"/>
  <polygon id="5" class="fil0" points="-9745,-5301 -9745,-7120 -9492,-7120 -8518,-5692 -8518,-7120 -8282,-7120 -8282,-5301 -8535,-5301 -9509,-6729 -9509,-5301 "/>
  <path id="6" class="fil0" d="M-17815 -2464l-228 0 0 -1423c-55,52 -127,103 -216,154 -89,51 -169,90 -240,115l0 -216c127,-58 239,-129 334,-213 96,-83 164,-164 203,-243l147 0 0 1826z"/>
  <path id="7" class="fil0" d="M-17228 -3361c0,-215 22,-388 67,-520 46,-131 112,-232 201,-303 89,-71 201,-106 336,-106 99,0 186,20 262,59 75,39 137,96 186,170 48,74 86,164 114,270 28,107 42,250 42,430 0,213 -23,386 -67,517 -45,132 -112,233 -201,304 -88,71 -201,107 -336,107 -179,0 -319,-62 -421,-187 -122,-153 -183,-399 -183,-741zm233 1c0,299 35,498 107,596 71,99 159,148 264,148 104,0 192,-50 264,-148 71,-99 107,-298 107,-596 0,-300 -36,-498 -107,-597 -71,-98 -160,-147 -267,-147 -104,0 -188,43 -251,130 -78,110 -117,315 -117,614z"/>
  <path id="8" class="fil0" d="M-15786 -3361c0,-215 22,-388 67,-520 45,-131 112,-232 201,-303 89,-71 201,-106 336,-106 99,0 186,20 262,59 75,39 137,96 186,170 48,74 86,164 114,270 28,107 42,250 42,430 0,213 -23,386 -67,517 -45,132 -112,233 -201,304 -88,71 -201,107 -336,107 -179,0 -319,-62 -421,-187 -122,-153 -183,-399 -183,-741zm233 1c0,299 35,498 107,596 71,99 159,148 264,148 104,0 192,-50 264,-148 71,-99 106,-298 106,-596 0,-300 -35,-498 -106,-597 -71,-98 -160,-147 -267,-147 -105,0 -188,43 -251,130 -78,110 -117,315 -117,614z"/>
  <path id="9" class="fil0" d="M-14303 -3846c0,-129 33,-240 100,-330 67,-91 164,-137 291,-137 117,0 213,41 290,122 76,81 115,201 115,359 0,153 -39,272 -116,355 -78,83 -173,124 -286,124 -113,0 -207,-41 -282,-122 -74,-82 -112,-206 -112,-371zm397 -312c-56,0 -103,24 -141,72 -37,48 -56,135 -56,263 0,116 19,197 57,244 38,48 85,71 140,71 58,0 105,-23 143,-71 38,-48 56,-135 56,-262 0,-117 -19,-199 -57,-246 -38,-47 -85,-71 -142,-71zm2 1760l1012 -1915 186 0 -1010 1915 -188 0zm799 -493c0,-130 33,-241 100,-331 66,-90 164,-136 291,-136 117,0 214,41 290,122 77,82 115,201 115,359 0,153 -39,272 -116,355 -78,83 -174,124 -288,124 -112,0 -205,-41 -280,-123 -75,-82 -112,-205 -112,-370zm398 -312c-58,0 -105,24 -143,72 -37,48 -56,135 -56,263 0,115 19,196 57,244 38,48 85,71 140,71 59,0 106,-23 144,-71 37,-48 56,-135 56,-262 0,-117 -19,-199 -57,-246 -38,-47 -85,-71 -141,-71z"/>
  <path id="10" class="fil0" d="M-11348 -2857l226 -36c12,89 48,156 106,204 58,47 139,70 243,70 105,0 182,-20 233,-62 51,-42 76,-91 76,-147 0,-50 -23,-90 -68,-119 -32,-20 -110,-45 -233,-76 -167,-41 -282,-76 -347,-107 -65,-30 -113,-71 -147,-125 -33,-53 -50,-112 -50,-176 0,-59 14,-113 41,-163 28,-50 65,-91 112,-124 36,-26 84,-47 145,-65 61,-18 127,-27 197,-27 105,0 197,15 277,45 80,30 139,70 177,121 37,51 64,120 78,205l-223 31c-10,-69 -39,-123 -88,-161 -48,-39 -116,-58 -205,-58 -104,0 -179,17 -223,51 -45,34 -67,74 -67,119 0,29 9,55 27,78 19,24 48,44 88,59 22,9 89,28 200,58 161,41 274,76 337,103 64,27 115,66 151,117 37,51 55,114 55,191 0,74 -22,144 -67,209 -44,66 -108,117 -192,153 -83,36 -178,53 -284,53 -174,0 -308,-35 -399,-106 -92,-71 -150,-176 -176,-315z"/>
  <path id="11" class="fil0" d="M-9961 -1958l0 -1824 208 0 0 173c49,-67 104,-117 166,-150 61,-34 136,-51 223,-51 115,0 217,29 304,87 88,58 154,139 199,244 45,106 67,221 67,347 0,134 -25,255 -74,363 -49,107 -121,190 -215,247 -94,58 -193,86 -297,86 -76,0 -144,-15 -204,-47 -60,-31 -110,-70 -149,-118l0 643 -228 0zm208 -1157c0,169 35,294 104,375 70,81 155,121 254,121 101,0 188,-41 260,-125 72,-84 108,-214 108,-389 0,-168 -35,-293 -106,-377 -70,-83 -154,-125 -252,-125 -96,0 -182,45 -256,133 -75,89 -112,218 -112,387z"/>
  <path id="12" class="fil0" d="M-7601 -2890l236 30c-37,134 -106,239 -206,313 -100,74 -228,111 -384,111 -196,0 -352,-59 -467,-177 -115,-119 -172,-285 -172,-499 0,-221 58,-393 174,-515 116,-122 267,-183 453,-183 179,0 325,60 439,180 114,119 171,288 171,505 0,13 -1,33 -2,59l-1002 0c9,145 50,256 126,332 74,77 168,115 280,115 83,0 155,-21 214,-64 59,-43 105,-112 140,-207zm-747 -358l750 0c-10,-111 -39,-194 -86,-250 -73,-86 -167,-129 -282,-129 -105,0 -192,34 -264,103 -71,69 -110,160 -118,276z"/>
  <path id="13" class="fil0" d="M-6159 -2890l236 30c-37,134 -106,239 -206,313 -100,74 -228,111 -384,111 -196,0 -352,-59 -467,-177 -115,-119 -172,-285 -172,-499 0,-221 58,-393 174,-515 116,-122 267,-183 452,-183 180,0 326,60 440,180 113,119 170,288 170,505 0,13 0,33 -1,59l-1002 0c9,145 50,256 126,332 74,77 168,115 280,115 83,0 155,-21 213,-64 60,-43 106,-112 141,-207zm-747 -358l749 0c-10,-111 -38,-194 -86,-250 -72,-86 -166,-129 -281,-129 -105,0 -193,34 -264,103 -71,69 -110,160 -118,276z"/>
  <path id="14" class="fil0" d="M-4767 -2464l0 -167c-85,130 -210,195 -376,195 -107,0 -205,-28 -295,-86 -90,-58 -159,-139 -209,-242 -49,-104 -74,-223 -74,-357 0,-132 23,-251 67,-358 45,-106 112,-189 202,-245 89,-57 189,-86 299,-86 81,0 153,17 217,51 63,33 114,77 154,131l0 -654 228 0 0 1818 -213 0zm-720 -657c0,168 36,294 109,378 73,83 159,124 258,124 99,0 184,-39 254,-119 70,-80 105,-201 105,-364 0,-180 -36,-312 -107,-396 -71,-84 -159,-126 -263,-126 -101,0 -186,40 -254,121 -68,81 -102,208 -102,382z"/>
  <path id="15" class="fil0" d="M-4134 -2464l0 -254 260 0 0 254c0,94 -17,170 -51,227 -34,58 -88,103 -162,134l-62 -96c48,-21 84,-52 106,-91 23,-41 36,-98 39,-174l-130 0z"/>
  <path id="16" class="fil0" d="M-17815 374l-228 0 0 -1423c-55,51 -127,103 -216,154 -89,51 -169,90 -240,115l0 -216c127,-58 239,-129 334,-213 96,-84 164,-165 203,-243l147 0 0 1826z"/>
  <path id="17" class="fil0" d="M-17228 -523c0,-215 22,-389 67,-520 46,-132 112,-233 201,-303 89,-71 201,-106 336,-106 99,0 186,19 262,59 75,39 137,96 186,170 48,73 86,164 114,270 28,106 42,250 42,430 0,213 -23,386 -67,517 -45,132 -112,233 -201,304 -88,71 -201,106 -336,106 -179,0 -319,-62 -421,-187 -122,-152 -183,-399 -183,-740zm233 0c0,300 35,499 107,597 71,99 159,148 264,148 104,0 192,-50 264,-149 71,-99 107,-297 107,-596 0,-299 -36,-498 -107,-596 -71,-99 -160,-148 -267,-148 -104,0 -188,44 -251,131 -78,110 -117,315 -117,613z"/>
  <path id="18" class="fil0" d="M-15786 -523c0,-215 22,-389 67,-520 45,-132 112,-233 201,-303 89,-71 201,-106 336,-106 99,0 186,19 262,59 75,39 137,96 186,170 48,73 86,164 114,270 28,106 42,250 42,430 0,213 -23,386 -67,517 -45,132 -112,233 -201,304 -88,71 -201,106 -336,106 -179,0 -319,-62 -421,-187 -122,-152 -183,-399 -183,-740zm233 0c0,300 35,499 107,597 71,99 159,148 264,148 104,0 192,-50 264,-149 71,-99 106,-297 106,-596 0,-299 -35,-498 -106,-596 -71,-99 -160,-148 -267,-148 -105,0 -188,44 -251,131 -78,110 -117,315 -117,613z"/>
  <path id="19" class="fil0" d="M-14303 -1008c0,-130 33,-240 100,-331 67,-91 164,-136 291,-136 117,0 213,41 290,122 76,81 115,201 115,358 0,154 -39,273 -116,356 -78,83 -173,124 -286,124 -113,0 -207,-41 -282,-123 -74,-81 -112,-205 -112,-370zm397 -312c-56,0 -103,24 -141,71 -37,48 -56,136 -56,263 0,116 19,198 57,245 38,47 85,71 140,71 58,0 105,-24 143,-71 38,-48 56,-136 56,-262 0,-117 -19,-199 -57,-246 -38,-47 -85,-71 -142,-71zm2 1760l1012 -1915 186 0 -1010 1915 -188 0zm799 -493c0,-131 33,-241 100,-332 66,-90 164,-135 291,-135 117,0 214,41 290,122 77,81 115,201 115,358 0,154 -39,273 -116,356 -78,83 -174,124 -288,124 -112,0 -205,-41 -280,-123 -75,-82 -112,-206 -112,-370zm398 -312c-58,0 -105,24 -143,71 -37,48 -56,136 -56,263 0,115 19,197 57,245 38,47 85,71 140,71 59,0 106,-24 144,-71 37,-48 56,-135 56,-262 0,-117 -19,-199 -57,-246 -38,-47 -85,-71 -141,-71z"/>
  <path id="20" class="fil0" d="M-11228 374l0 -1819 700 0c124,0 218,6 283,18 91,15 168,43 229,84 62,42 112,101 150,176 37,75 56,157 56,247 0,154 -50,285 -151,392 -100,107 -282,160 -545,160l-476 0 0 742 -246 0zm246 -955l480 0c159,0 271,-29 338,-87 66,-58 100,-139 100,-245 0,-75 -20,-140 -59,-195 -39,-54 -91,-90 -155,-107 -42,-11 -118,-16 -229,-16l-475 0 0 650z"/>
  <path id="21" class="fil0" d="M-9574 -511c0,-302 83,-538 248,-708 166,-171 379,-256 641,-256 171,0 326,40 463,120 138,80 243,192 315,335 72,143 108,306 108,488 0,184 -38,349 -114,494 -76,146 -183,256 -322,330 -140,75 -290,112 -451,112 -175,0 -331,-41 -469,-124 -138,-82 -242,-195 -313,-338 -71,-142 -106,-294 -106,-453zm254 4c0,219 60,391 180,517 120,126 271,189 452,189 185,0 337,-64 457,-191 119,-127 178,-307 178,-541 0,-148 -25,-277 -76,-387 -51,-110 -126,-195 -224,-256 -98,-60 -209,-91 -331,-91 -174,0 -323,59 -448,175 -126,117 -188,312 -188,585z"/>
  <path id="22" class="fil0" d="M-7162 374l-489 -1819 255 0 278 1193c30,125 57,249 80,372 49,-194 77,-306 85,-336l351 -1229 296 0 266 921c66,229 114,443 145,644 25,-115 56,-247 95,-395l290 -1170 247 0 -509 1819 -239 0 -389 -1386c-33,-116 -53,-187 -60,-213 -21,83 -40,154 -57,213l-389 1386 -256 0z"/>
  <polygon id="23" class="fil0" points="-5031,374 -5031,-1445 -3690,-1445 -3690,-1231 -4784,-1231 -4784,-672 -3760,-672 -3760,-459 -4784,-459 -4784,161 -3646,161 -3646,374 "/>
  <path id="24" class="fil0" d="M-3301 374l0 -1819 822 0c166,0 292,17 377,49 86,33 155,91 207,173 51,83 77,174 77,274 0,129 -43,238 -128,326 -86,89 -217,145 -395,169 65,30 115,61 148,91 72,64 140,145 203,242l321 495 -306 0 -246 -378c-71,-110 -130,-193 -176,-251 -47,-58 -89,-99 -125,-122 -37,-23 -74,-39 -112,-48 -28,-6 -73,-9 -137,-9l-284 0 0 808 -246 0zm246 -1016l527 0c112,0 200,-11 263,-34 63,-23 111,-59 143,-110 33,-49 49,-104 49,-162 0,-86 -31,-158 -95,-213 -63,-55 -163,-83 -300,-83l-587 0 0 602z"/>
  <path id="25" class="fil0" d="M-1403 374l0 -254 259 0 0 254c0,94 -17,169 -51,227 -34,57 -88,102 -162,134l-62 -97c49,-21 84,-51 106,-91 23,-40 36,-98 39,-173l-129 0z"/>
  <path id="26" class="fil0" d="M-18670 2734l238 -18c18,114 59,200 123,257 64,57 142,86 234,86 111,0 204,-40 280,-121 75,-82 113,-189 113,-323 0,-127 -36,-228 -108,-301 -73,-74 -168,-111 -287,-111 -74,0 -140,17 -199,50 -58,33 -104,76 -137,128l-216 -30 179 -935 921 0 0 213 -739 0 -99 491c111,-77 228,-115 350,-115 161,0 298,55 409,165 111,110 167,252 167,424 0,165 -49,307 -147,427 -119,147 -281,221 -487,221 -168,0 -306,-46 -412,-139 -107,-93 -168,-216 -183,-369z"/>
  <path id="27" class="fil0" d="M-17228 2314c0,-214 22,-388 67,-519 46,-132 112,-233 201,-304 89,-70 201,-106 336,-106 99,0 186,20 262,59 75,40 137,96 186,170 48,74 86,164 114,270 28,107 42,250 42,430 0,214 -23,386 -67,517 -45,132 -112,233 -201,304 -88,72 -201,107 -336,107 -179,0 -319,-62 -421,-187 -122,-152 -183,-399 -183,-741zm233 1c0,299 35,498 107,596 71,99 159,148 264,148 104,0 192,-49 264,-148 71,-99 107,-298 107,-596 0,-299 -36,-498 -107,-596 -71,-99 -160,-148 -267,-148 -104,0 -188,43 -251,130 -78,111 -117,316 -117,614z"/>
  <path id="28" class="fil0" d="M-15786 2314c0,-214 22,-388 67,-519 45,-132 112,-233 201,-304 89,-70 201,-106 336,-106 99,0 186,20 262,59 75,40 137,96 186,170 48,74 86,164 114,270 28,107 42,250 42,430 0,214 -23,386 -67,517 -45,132 -112,233 -201,304 -88,72 -201,107 -336,107 -179,0 -319,-62 -421,-187 -122,-152 -183,-399 -183,-741zm233 1c0,299 35,498 107,596 71,99 159,148 264,148 104,0 192,-49 264,-148 71,-99 106,-298 106,-596 0,-299 -35,-498 -106,-596 -71,-99 -160,-148 -267,-148 -105,0 -188,43 -251,130 -78,111 -117,316 -117,614z"/>
  <path id="29" class="fil0" d="M-14345 2314c0,-214 23,-388 68,-519 45,-132 112,-233 201,-304 89,-70 201,-106 335,-106 100,0 187,20 263,59 75,40 137,96 186,170 48,74 86,164 114,270 28,107 42,250 42,430 0,214 -23,386 -67,517 -45,132 -112,233 -201,304 -88,72 -201,107 -337,107 -178,0 -318,-62 -420,-187 -123,-152 -184,-399 -184,-741zm234 1c0,299 35,498 106,596 72,99 160,148 264,148 105,0 193,-49 264,-148 72,-99 107,-298 107,-596 0,-299 -35,-498 -107,-596 -70,-99 -159,-148 -266,-148 -105,0 -188,43 -251,130 -78,111 -117,316 -117,614z"/>
  <path id="30" class="fil0" d="M-12840 3212l0 -1819 228 0 0 654c106,-121 239,-182 401,-182 99,0 185,19 258,58 73,39 125,91 157,159 31,68 47,167 47,295l0 835 -228 0 0 -834c0,-111 -25,-193 -74,-243 -49,-51 -118,-77 -208,-77 -67,0 -130,17 -189,52 -59,34 -101,81 -127,139 -25,59 -37,140 -37,243l0 720 -228 0z"/>
  <path id="31" class="fil0" d="M-11519 3212l0 -182 852 -964c-97,5 -182,8 -255,8l-545 0 0 -181 1096 0 0 147 -729 836 -140 155c103,-8 199,-12 288,-12l623 0 0 193 -1190 0z"/>
  <path id="32" class="fil0" d="M-17475 5836l0 213 -1229 0c-2,-54 8,-105 27,-155 32,-82 82,-163 152,-242 69,-79 169,-170 298,-274 201,-162 337,-291 409,-385 71,-95 107,-185 107,-270 0,-88 -32,-163 -97,-224 -65,-60 -150,-91 -254,-91 -110,0 -198,33 -264,97 -66,64 -100,153 -100,267l-234 -23c16,-171 77,-302 181,-391 105,-90 246,-135 422,-135 178,0 320,48 423,145 105,97 156,217 156,360 0,73 -15,145 -45,215 -31,71 -81,145 -152,223 -70,77 -188,184 -351,320 -137,112 -225,189 -264,229 -39,40 -71,80 -96,121l911 0z"/>
  <path id="33" class="fil0" d="M-17104 4985l0 -254 259 0 0 254 -259 0zm0 1064l0 -254 259 0 0 254 -259 0z"/>
  <path id="34" class="fil0" d="M-16508 5572l239 -18c17,114 58,199 122,257 64,57 142,86 234,86 111,0 204,-41 280,-122 75,-81 113,-188 113,-322 0,-128 -36,-228 -108,-302 -72,-73 -168,-110 -287,-110 -74,0 -140,16 -198,49 -59,33 -105,76 -138,129l-216 -31 179 -935 921 0 0 214 -739 0 -99 490c111,-76 228,-114 350,-114 161,0 298,55 409,165 111,110 167,251 167,424 0,165 -49,307 -147,427 -118,147 -281,221 -487,221 -168,0 -305,-47 -412,-140 -107,-92 -168,-215 -183,-368z"/>
  <path id="35" class="fil0" d="M-15066 5572l238 -18c18,114 59,199 123,257 64,57 142,86 234,86 111,0 204,-41 280,-122 75,-81 113,-188 113,-322 0,-128 -36,-228 -108,-302 -73,-73 -168,-110 -287,-110 -74,0 -140,16 -199,49 -58,33 -104,76 -137,129l-216 -31 179 -935 921 0 0 214 -739 0 -99 490c111,-76 228,-114 350,-114 161,0 298,55 409,165 111,110 167,251 167,424 0,165 -49,307 -147,427 -119,147 -281,221 -487,221 -168,0 -306,-47 -412,-140 -107,-92 -168,-215 -183,-368z"/>
  <path id="36" class="fil0" d="M-12842 6049l0 -1318 205 0 0 186c42,-64 98,-116 168,-155 70,-39 150,-59 239,-59 99,0 181,20 245,61 63,40 108,97 134,169 107,-153 246,-230 417,-230 134,0 237,36 309,108 72,73 108,184 108,334l0 904 -228 0 0 -829c0,-89 -8,-154 -22,-193 -15,-39 -42,-71 -81,-95 -39,-24 -85,-36 -137,-36 -95,0 -174,31 -236,92 -63,62 -94,161 -94,296l0 765 -228 0 0 -855c0,-99 -19,-174 -56,-223 -37,-50 -98,-75 -182,-75 -64,0 -124,17 -178,50 -54,33 -94,81 -118,145 -25,63 -37,155 -37,275l0 683 -228 0z"/>
  <path id="37" class="fil0" d="M-10682 4485l0 -254 228 0 0 254 -228 0zm0 1564l0 -1318 228 0 0 1318 -228 0z"/>
  <path id="38" class="fil0" d="M-10106 6049l0 -1318 205 0 0 187c98,-143 241,-215 427,-215 81,0 155,14 223,43 68,28 119,66 153,112 33,46 57,101 71,165 8,41 12,114 12,217l0 809 -228 0 0 -801c0,-91 -9,-159 -26,-204 -18,-45 -50,-81 -95,-108 -44,-26 -98,-40 -158,-40 -97,0 -180,30 -251,91 -70,60 -105,175 -105,343l0 719 -228 0z"/>
  <path class="fil0" d="M61150 -4519l0 -1818 687 0c121,0 213,6 277,17 89,15 164,43 225,85 60,42 109,100 146,175 37,75 55,157 55,248 0,154 -49,285 -148,391 -98,107 -276,161 -534,161l-466 0 0 741 -242 0zm242 -955l470 0c155,0 266,-28 331,-86 65,-58 98,-140 98,-245 0,-76 -19,-141 -58,-195 -38,-55 -89,-91 -152,-108 -40,-10 -115,-16 -224,-16l-465 0 0 650z"/>
  <path id="1" class="fil0" d="M62457 -4519l698 -1818 264 0 741 1818 -274 0 -211 -551 -766 0 -197 551 -255 0zm523 -746l620 0 -190 -505c-57,-153 -100,-279 -130,-379 -25,118 -59,235 -100,350l-200 534z"/>
  <path id="2" class="fil0" d="M64350 -4519l0 -1818 687 0c121,0 213,6 277,17 89,15 164,43 225,85 60,42 109,100 146,175 37,75 55,157 55,248 0,154 -49,285 -148,391 -98,107 -276,161 -534,161l-466 0 0 741 -242 0zm242 -955l470 0c155,0 266,-28 331,-86 65,-58 98,-140 98,-245 0,-76 -19,-141 -58,-195 -38,-55 -89,-91 -152,-108 -40,-10 -115,-16 -224,-16l-465 0 0 650z"/>
  <polygon id="3" class="fil0" points="66085,-4519 66085,-6337 66327,-6337 66327,-4519 "/>
  <polygon id="4" class="fil0" points="66755,-4519 66755,-6337 68069,-6337 68069,-6124 66997,-6124 66997,-5565 68000,-5565 68000,-5352 66997,-5352 66997,-4732 68112,-4732 68112,-4519 "/>
  <path id="5" class="fil0" d="M68450 -4519l0 -1818 806 0c162,0 285,16 369,49 84,32 152,90 202,173 51,82 75,174 75,273 0,130 -41,238 -125,327 -83,88 -212,144 -386,168 64,31 112,61 145,91 70,64 137,145 199,242l314 495 -300 0 -241 -378c-69,-110 -127,-193 -173,-251 -46,-58 -86,-98 -122,-122 -36,-23 -73,-39 -110,-48 -27,-5 -71,-8 -134,-8l-278 0 0 807 -241 0zm241 -1016l516 0c110,0 196,-11 258,-34 62,-22 109,-59 140,-109 32,-50 49,-104 49,-163 0,-86 -31,-157 -94,-213 -62,-55 -160,-83 -294,-83l-575 0 0 602z"/>
  <path id="6" class="fil0" d="M70370 -4971l-68 -963 0 -403 277 0 0 403 -64 963 -145 0zm-58 452l0 -254 256 0 0 254 -256 0z"/>
  <path id="7" class="fil0" d="M62233 -1894l0 213 -1204 0c-2,-54 7,-105 26,-155 31,-82 80,-163 148,-242 69,-79 166,-171 293,-274 196,-163 330,-291 400,-386 70,-95 105,-184 105,-269 0,-88 -31,-163 -95,-224 -63,-60 -146,-91 -248,-91 -108,0 -195,32 -259,97 -65,64 -98,152 -99,266l-228 -23c15,-171 75,-301 177,-391 103,-89 241,-134 414,-134 174,0 313,48 414,145 102,97 153,217 153,360 0,73 -15,145 -45,215 -30,70 -79,145 -148,222 -69,78 -184,185 -344,320 -134,113 -221,189 -259,230 -38,40 -69,80 -94,121l893 0z"/>
  <path id="8" class="fil0" d="M62535 -1681l0 -1318 201 0 0 187c96,-144 236,-215 419,-215 79,0 152,14 218,43 67,28 117,66 150,112 33,46 56,101 69,164 8,42 13,114 13,218l0 809 -224 0 0 -801c0,-91 -8,-159 -26,-204 -17,-45 -48,-81 -92,-108 -44,-27 -96,-40 -155,-40 -95,0 -177,30 -246,90 -69,60 -103,175 -103,344l0 719 -224 0z"/>
  <path id="9" class="fil0" d="M64799 -1681l0 -167c-84,130 -206,195 -369,195 -105,0 -201,-29 -289,-87 -88,-57 -156,-138 -205,-242 -48,-103 -72,-222 -72,-357 0,-131 22,-250 66,-357 44,-107 109,-189 197,-246 87,-57 185,-85 293,-85 80,0 151,17 212,50 62,34 113,78 152,131l0 -654 223 0 0 1819 -208 0zm-706 -657c0,168 35,294 107,377 71,84 155,125 252,125 98,0 181,-40 249,-119 69,-80 103,-201 103,-365 0,-179 -35,-311 -105,-396 -69,-84 -155,-126 -257,-126 -100,0 -183,40 -249,121 -67,81 -100,209 -100,383z"/>
  <path id="10" class="fil0" d="M66843 -1681l-223 0 0 -1423c-54,51 -125,103 -212,154 -87,51 -166,90 -235,115l0 -216c125,-58 234,-130 328,-213 93,-84 160,-165 199,-243l143 0 0 1826z"/>
  <path id="11" class="fil0" d="M67418 -2579c0,-214 22,-388 66,-519 44,-132 110,-233 197,-303 87,-71 197,-106 329,-106 97,0 183,19 257,59 73,39 134,96 182,170 47,73 84,164 112,270 27,106 41,250 41,429 0,214 -22,387 -66,518 -44,131 -109,233 -196,304 -87,71 -197,106 -330,106 -175,0 -313,-62 -413,-187 -119,-152 -179,-399 -179,-741zm229 1c0,300 34,499 104,597 70,98 156,148 259,148 102,0 189,-50 258,-149 70,-99 105,-297 105,-596 0,-299 -35,-498 -105,-596 -69,-99 -156,-148 -261,-148 -102,0 -184,44 -246,130 -76,111 -114,316 -114,614z"/>
  <path id="12" class="fil0" d="M68831 -2579c0,-214 22,-388 66,-519 44,-132 110,-233 197,-303 87,-71 196,-106 328,-106 98,0 183,19 257,59 74,39 135,96 182,170 48,73 85,164 112,270 28,106 41,250 41,429 0,214 -22,387 -65,518 -44,131 -110,233 -197,304 -87,71 -197,106 -330,106 -174,0 -312,-62 -412,-187 -120,-152 -179,-399 -179,-741zm228 1c0,300 35,499 105,597 70,98 156,148 258,148 103,0 189,-50 259,-149 70,-99 105,-297 105,-596 0,-299 -35,-498 -105,-596 -69,-99 -157,-148 -261,-148 -103,0 -185,44 -246,130 -77,111 -115,316 -115,614z"/>
  <path id="13" class="fil0" d="M70284 -3063c0,-130 32,-240 98,-331 66,-91 161,-136 285,-136 114,0 209,40 284,122 75,81 113,201 113,358 0,154 -38,273 -114,355 -76,83 -170,125 -280,125 -111,0 -203,-41 -276,-123 -73,-82 -110,-205 -110,-370zm389 -312c-55,0 -101,23 -138,71 -37,48 -56,136 -56,263 0,116 19,198 56,245 38,47 84,71 138,71 57,0 103,-24 140,-72 37,-47 55,-135 55,-261 0,-117 -19,-199 -56,-246 -37,-48 -83,-71 -139,-71zm2 1760l991 -1915 183 0 -990 1915 -184 0zm782 -493c0,-131 33,-241 99,-332 65,-90 160,-135 285,-135 114,0 209,41 284,122 75,81 112,201 112,358 0,154 -38,273 -113,356 -76,82 -170,124 -282,124 -110,0 -201,-41 -275,-123 -73,-82 -110,-206 -110,-370zm390 -312c-56,0 -102,24 -139,71 -37,48 -55,136 -55,263 0,115 19,197 56,245 37,47 82,71 137,71 57,0 104,-24 141,-71 36,-48 55,-136 55,-262 0,-117 -19,-199 -56,-246 -37,-47 -83,-71 -139,-71z"/>
  <path id="14" class="fil0" d="M73179 -2075l221 -35c13,88 47,156 104,203 57,47 136,71 238,71 103,0 179,-21 229,-63 50,-41 75,-90 75,-147 0,-50 -23,-90 -67,-119 -32,-19 -108,-44 -229,-75 -163,-41 -276,-77 -340,-107 -63,-30 -111,-72 -143,-125 -33,-53 -49,-112 -49,-176 0,-59 13,-113 40,-163 27,-50 63,-92 109,-125 35,-25 83,-47 142,-65 60,-17 124,-26 193,-26 103,0 194,15 272,45 78,29 136,70 173,121 37,51 62,119 76,205l-218 30c-10,-69 -39,-122 -86,-161 -47,-38 -114,-57 -201,-57 -102,0 -175,17 -219,50 -44,34 -66,74 -66,119 0,29 9,55 28,79 18,23 46,43 85,59 23,8 88,27 197,57 157,42 267,77 330,103 63,27 112,66 147,117 36,51 54,115 54,191 0,74 -21,144 -65,210 -44,65 -106,116 -188,152 -82,36 -175,54 -278,54 -171,0 -302,-36 -392,-106 -89,-71 -147,-176 -172,-316z"/>
  <path id="15" class="fil0" d="M74538 -1176l0 -1823 204 0 0 173c47,-67 102,-117 162,-151 60,-33 133,-50 219,-50 113,0 212,29 298,87 86,57 151,139 195,244 43,105 65,220 65,346 0,134 -24,255 -72,363 -48,108 -119,190 -211,248 -92,57 -189,86 -290,86 -75,0 -142,-16 -200,-47 -60,-31 -108,-71 -146,-119l0 643 -224 0zm204 -1156c0,169 34,294 102,375 69,80 152,121 249,121 99,0 184,-42 254,-126 71,-84 106,-213 106,-389 0,-167 -35,-293 -104,-376 -69,-84 -151,-125 -246,-125 -95,0 -179,44 -252,133 -73,89 -109,218 -109,387z"/>
  <path id="16" class="fil0" d="M76850 -2108l231 31c-36,134 -103,238 -201,313 -98,74 -224,111 -377,111 -192,0 -344,-59 -457,-178 -112,-118 -169,-284 -169,-498 0,-221 57,-393 171,-515 114,-122 262,-183 443,-183 176,0 319,59 431,179 111,120 167,289 167,506 0,13 0,33 -1,59l-982 0c8,144 49,255 123,332 73,76 165,115 274,115 82,0 152,-22 210,-65 58,-43 103,-112 137,-207zm-731 -358l734 0c-10,-111 -38,-194 -84,-249 -71,-86 -163,-129 -277,-129 -102,0 -188,34 -258,102 -69,69 -108,161 -115,276z"/>
  <path id="17" class="fil0" d="M78263 -2108l231 31c-36,134 -103,238 -202,313 -98,74 -223,111 -376,111 -192,0 -344,-59 -457,-178 -113,-118 -169,-284 -169,-498 0,-221 57,-393 171,-515 114,-122 261,-183 443,-183 176,0 319,59 430,179 112,120 168,289 168,506 0,13 -1,33 -2,59l-981 0c8,144 49,255 122,332 74,76 166,115 275,115 82,0 152,-22 209,-65 58,-43 104,-112 138,-207zm-732 -358l734 0c-9,-111 -38,-194 -84,-249 -71,-86 -163,-129 -276,-129 -102,0 -188,34 -258,102 -70,69 -108,161 -116,276z"/>
  <path id="18" class="fil0" d="M79627 -1681l0 -167c-83,130 -206,195 -368,195 -105,0 -202,-29 -289,-87 -88,-57 -156,-138 -205,-242 -48,-103 -72,-222 -72,-357 0,-131 22,-250 65,-357 44,-107 110,-189 197,-246 88,-57 186,-85 294,-85 79,0 150,17 212,50 62,34 112,78 151,131l0 -654 224 0 0 1819 -209 0zm-706 -657c0,168 36,294 107,377 71,84 156,125 253,125 97,0 180,-40 249,-119 68,-80 102,-201 102,-365 0,-179 -34,-311 -104,-396 -70,-84 -156,-126 -258,-126 -99,0 -182,40 -249,121 -66,81 -100,209 -100,383z"/>
  <path id="19" class="fil0" d="M80247 -1681l0 -254 254 0 0 254c0,94 -16,169 -50,227 -33,57 -85,102 -158,134l-61 -97c48,-21 82,-51 104,-91 23,-40 35,-98 38,-173l-127 0z"/>
  <path id="20" class="fil0" d="M81672 -1681l-224 0 0 -1423c-53,51 -124,103 -211,154 -87,51 -166,90 -236,115l0 -216c125,-58 235,-130 328,-213 94,-84 160,-165 199,-243l144 0 0 1826z"/>
  <path id="21" class="fil0" d="M82246 -2579c0,-214 22,-388 66,-519 45,-132 111,-233 198,-303 87,-71 196,-106 328,-106 98,0 183,19 257,59 74,39 135,96 182,170 48,73 85,164 112,270 28,106 41,250 41,429 0,214 -22,387 -66,518 -43,131 -109,233 -196,304 -87,71 -197,106 -330,106 -175,0 -312,-62 -412,-187 -120,-152 -180,-399 -180,-741zm229 1c0,300 35,499 105,597 69,98 156,148 258,148 103,0 189,-50 259,-149 70,-99 104,-297 104,-596 0,-299 -34,-498 -104,-596 -70,-99 -157,-148 -261,-148 -103,0 -185,44 -246,130 -77,111 -115,316 -115,614z"/>
  <path id="22" class="fil0" d="M83659 -2579c0,-214 22,-388 66,-519 45,-132 110,-233 197,-303 87,-71 197,-106 329,-106 97,0 183,19 257,59 74,39 134,96 182,170 47,73 85,164 112,270 27,106 41,250 41,429 0,214 -22,387 -66,518 -43,131 -109,233 -196,304 -87,71 -197,106 -330,106 -175,0 -313,-62 -412,-187 -120,-152 -180,-399 -180,-741zm229 1c0,300 34,499 104,597 70,98 156,148 259,148 102,0 189,-50 259,-149 69,-99 104,-297 104,-596 0,-299 -35,-498 -104,-596 -70,-99 -157,-148 -262,-148 -102,0 -184,44 -246,130 -76,111 -114,316 -114,614z"/>
  <path id="23" class="fil0" d="M85112 -3063c0,-130 33,-240 99,-331 65,-91 160,-136 285,-136 114,0 209,40 284,122 74,81 112,201 112,358 0,154 -38,273 -114,355 -75,83 -169,125 -280,125 -110,0 -202,-41 -276,-123 -73,-82 -110,-205 -110,-370zm390 -312c-56,0 -102,23 -139,71 -36,48 -55,136 -55,263 0,116 19,198 56,245 37,47 83,71 138,71 56,0 103,-24 140,-72 36,-47 55,-135 55,-261 0,-117 -19,-199 -56,-246 -38,-48 -84,-71 -139,-71zm1 1760l992 -1915 182 0 -989 1915 -185 0zm783 -493c0,-131 32,-241 98,-332 65,-90 161,-135 285,-135 115,0 210,41 284,122 75,81 113,201 113,358 0,154 -38,273 -114,356 -76,82 -170,124 -281,124 -110,0 -202,-41 -275,-123 -73,-82 -110,-206 -110,-370zm390 -312c-57,0 -103,24 -140,71 -36,48 -55,136 -55,263 0,115 19,197 56,245 37,47 83,71 137,71 58,0 104,-24 141,-71 37,-48 55,-136 55,-262 0,-117 -19,-199 -56,-246 -37,-47 -83,-71 -138,-71z"/>
  <path id="24" class="fil0" d="M87450 -1681l0 -254 254 0 0 254c0,94 -17,169 -50,227 -33,57 -86,102 -159,134l-61 -97c48,-21 82,-51 105,-91 22,-40 35,-98 37,-173l-126 0z"/>
  <path id="25" class="fil0" d="M88036 -2159l234 -17c17,114 57,199 120,257 62,57 139,86 229,86 109,0 200,-41 274,-122 74,-81 111,-189 111,-323 0,-127 -35,-227 -106,-301 -71,-74 -164,-110 -281,-110 -72,0 -137,16 -195,49 -57,33 -102,76 -135,128l-210 -30 175 -935 902 0 0 214 -724 0 -97 490c109,-76 223,-115 343,-115 158,0 292,55 400,166 109,110 164,251 164,424 0,164 -48,307 -144,426 -116,148 -275,221 -477,221 -165,0 -299,-46 -404,-139 -105,-93 -164,-215 -179,-369z"/>
  <path id="26" class="fil0" d="M89449 -2579c0,-214 22,-388 66,-519 44,-132 110,-233 197,-303 87,-71 196,-106 328,-106 98,0 183,19 257,59 74,39 135,96 182,170 48,73 85,164 112,270 28,106 41,250 41,429 0,214 -22,387 -65,518 -44,131 -110,233 -197,304 -87,71 -197,106 -330,106 -174,0 -312,-62 -412,-187 -120,-152 -179,-399 -179,-741zm228 1c0,300 35,499 105,597 70,98 156,148 258,148 103,0 189,-50 259,-149 70,-99 105,-297 105,-596 0,-299 -35,-498 -105,-596 -69,-99 -157,-148 -261,-148 -103,0 -185,44 -246,130 -77,111 -115,316 -115,614z"/>
  <path id="27" class="fil0" d="M90861 -2579c0,-214 22,-388 66,-519 45,-132 110,-233 198,-303 86,-71 196,-106 328,-106 97,0 183,19 257,59 74,39 135,96 182,170 47,73 85,164 112,270 27,106 41,250 41,429 0,214 -22,387 -66,518 -43,131 -109,233 -196,304 -87,71 -197,106 -330,106 -175,0 -312,-62 -412,-187 -120,-152 -180,-399 -180,-741zm229 1c0,300 35,499 104,597 70,98 157,148 259,148 103,0 189,-50 259,-149 70,-99 104,-297 104,-596 0,-299 -34,-498 -104,-596 -70,-99 -157,-148 -261,-148 -103,0 -185,44 -246,130 -77,111 -115,316 -115,614z"/>
  <path id="28" class="fil0" d="M92274 -2579c0,-214 22,-388 66,-519 44,-132 110,-233 197,-303 87,-71 197,-106 329,-106 97,0 183,19 257,59 73,39 134,96 182,170 47,73 84,164 111,270 28,106 42,250 42,429 0,214 -22,387 -66,518 -44,131 -109,233 -196,304 -87,71 -197,106 -330,106 -175,0 -313,-62 -413,-187 -119,-152 -179,-399 -179,-741zm229 1c0,300 34,499 104,597 70,98 156,148 259,148 102,0 189,-50 258,-149 70,-99 105,-297 105,-596 0,-299 -35,-498 -105,-596 -69,-99 -156,-148 -261,-148 -102,0 -184,44 -246,130 -76,111 -114,316 -114,614z"/>
  <path id="29" class="fil0" d="M93748 -1681l0 -1819 223 0 0 655c104,-122 235,-182 393,-182 97,0 181,19 253,57 72,39 123,92 154,159 31,68 46,167 46,296l0 834 -224 0 0 -834c0,-111 -24,-192 -72,-243 -48,-51 -116,-76 -204,-76 -65,0 -127,17 -185,51 -58,34 -99,81 -124,140 -25,58 -37,139 -37,242l0 720 -223 0z"/>
  <path id="30" class="fil0" d="M95042 -1681l0 -182 835 -964c-95,5 -178,8 -250,8l-534 0 0 -180 1074 0 0 147 -714 835 -137 156c100,-9 194,-13 282,-13l610 0 0 193 -1166 0z"/>
  <g id="_781095200">
   <ellipse class="fil1 str0" transform="matrix(3.15879E-014 -1.19269 0.921618 2.44086E-014 90604.6 16107.3)" rx="1048" ry="1356"/>
   <rect class="fil1 str1" transform="matrix(1.88482E-014 -0.708661 0.553642 1.4601E-014 64598 26607.3)" width="29633" height="54187"/>
  </g>
 </g>
 <g id="rgbboverlay">
  <metadata id="CorelCorpID_2Corel-Layer"/>
  <g id="_783639600">
   <ellipse class="fil1 str0" transform="matrix(3.15879E-014 -1.19269 0.921618 2.44086E-014 1040.9 103539)" rx="1048" ry="1356"/>
   <rect class="fil1 str0" transform="matrix(1.88482E-014 -0.708661 0.553642 1.4601E-014 -24965.7 114039)" width="29633" height="54187" rx="141" ry="141"/>
   <ellipse class="fil1 str0" transform="matrix(7.90253E-015 -0.298383 0.412312 1.09199E-014 -8765.75 103539)" rx="670" ry="485"/>
   <path class="fil1 str0" d="M-10923 100089l0 -940c0,-88 93,-160 207,-160l1530 0c114,0 207,72 207,160l0 940"/>
   <path class="fil1 str0" d="M-8479 106989l0 940c0,88 -93,160 -207,160l-1530 0c-114,0 -207,-72 -207,-160l0 -940"/>
   <polyline class="fil1 str0" points="-10423,106989 -11266,106989 -11266,105489 -4266,105489 -4266,106989 -8479,106989 "/>
   <polyline class="fil1 str0" points="-8979,100089 -4766,100089 -4766,101589 -11766,101589 -11766,100089 -10923,100089 "/>
   <ellipse class="fil1 str0" transform="matrix(7.90253E-015 -0.298383 0.412312 1.09199E-014 -18765.7 103539)" rx="670" ry="485"/>
   <path class="fil1 str0" d="M-20923 100089l0 -940c0,-88 93,-160 207,-160l1530 0c114,0 207,72 207,160l0 940"/>
   <path class="fil1 str0" d="M-18979 106989l0 940c0,88 -93,160 -207,160l-1530 0c-114,0 -207,-72 -207,-160l0 -940"/>
   <polyline class="fil1 str0" points="-20923,106989 -21766,106989 -21766,105489 -14766,105489 -14766,106989 -18979,106989 "/>
   <polyline class="fil1 str0" points="-18979,100089 -14766,100089 -14766,101589 -21766,101589 -21766,100089 -20923,100089 "/>
  </g>
  <g id="_784691168">
   <ellipse class="fil1 str0" transform="matrix(3.15879E-014 -1.19269 0.921618 2.44086E-014 -187.36 17792.1)" rx="1048" ry="1356"/>
   <rect class="fil1 str0" transform="matrix(1.88482E-014 -0.708661 0.553642 1.4601E-014 -26194 28292.1)" width="29633" height="54187" rx="141" ry="141"/>
   <g>
    <rect class="fil1 str0" x="-6119" y="21667" width="1000" height="1000" rx="90" ry="76"/>
    <rect class="fil1 str0" x="-6119" y="20417" width="1000" height="1000" rx="90" ry="76"/>
    <rect class="fil1 str0" x="-6119" y="19167" width="1000" height="1000" rx="90" ry="76"/>
    <rect class="fil1 str0" x="-6119" y="17917" width="1000" height="1000" rx="90" ry="76"/>
    <rect class="fil1 str0" x="-6119" y="16667" width="1000" height="1000" rx="90" ry="76"/>
    <rect class="fil1 str0" x="-6119" y="15417" width="1000" height="1000" rx="90" ry="76"/>
    <rect class="fil1 str0" x="-6119" y="14167" width="1000" height="1000" rx="90" ry="76"/>
    <rect class="fil1 str0" x="-6119" y="12917" width="1000" height="1000" rx="90" ry="76"/>
    <rect class="fil1 str0" x="-7369" y="21667" width="1000" height="1000" rx="90" ry="76"/>
    <rect class="fil1 str0" x="-7369" y="20417" width="1000" height="1000" rx="90" ry="76"/>
    <rect class="fil1 str0" x="-7369" y="19167" width="1000" height="1000" rx="90" ry="76"/>
    <rect class="fil1 str0" x="-7369" y="17917" width="1000" height="1000" rx="90" ry="76"/>
    <rect class="fil1 str0" x="-7369" y="16667" width="1000" height="1000" rx="90" ry="76"/>
    <rect class="fil1 str0" x="-7369" y="15417" width="1000" height="1000" rx="90" ry="76"/>
    <rect class="fil1 str0" x="-7369" y="14167" width="1000" height="1000" rx="90" ry="76"/>
    <rect class="fil1 str0" x="-7369" y="12917" width="1000" height="1000" rx="90" ry="76"/>
    <rect class="fil1 str0" x="-8619" y="21667" width="1000" height="1000" rx="90" ry="76"/>
    <rect class="fil1 str0" x="-8619" y="20417" width="1000" height="1000" rx="90" ry="76"/>
    <rect class="fil1 str0" x="-8619" y="19167" width="1000" height="1000" rx="90" ry="76"/>
    <rect class="fil1 str0" x="-8619" y="17917" width="1000" height="1000" rx="90" ry="76"/>
    <rect class="fil1 str0" x="-8619" y="16667" width="1000" height="1000" rx="90" ry="76"/>
    <rect class="fil1 str0" x="-8619" y="15417" width="1000" height="1000" rx="90" ry="76"/>
    <rect class="fil1 str0" x="-8619" y="14167" width="1000" height="1000" rx="90" ry="76"/>
    <rect class="fil1 str0" x="-8619" y="12917" width="1000" height="1000" rx="90" ry="76"/>
    <rect class="fil1 str0" x="-9869" y="21667" width="1000" height="1000" rx="90" ry="76"/>
    <rect class="fil1 str0" x="-9869" y="20417" width="1000" height="1000" rx="90" ry="76"/>
    <rect class="fil1 str0" x="-9869" y="19167" width="1000" height="1000" rx="90" ry="76"/>
    <rect class="fil1 str0" x="-9869" y="17917" width="1000" height="1000" rx="90" ry="76"/>
    <rect class="fil1 str0" x="-9869" y="16667" width="1000" height="1000" rx="90" ry="76"/>
    <rect class="fil1 str0" x="-9869" y="15417" width="1000" height="1000" rx="90" ry="76"/>
    <rect class="fil1 str0" x="-9869" y="14167" width="1000" height="1000" rx="90" ry="76"/>
    <rect class="fil1 str0" x="-9869" y="12917" width="1000" height="1000" rx="90" ry="76"/>
    <rect class="fil1 str0" x="-11119" y="21667" width="1000" height="1000" rx="90" ry="76"/>
    <rect class="fil1 str0" x="-11119" y="20417" width="1000" height="1000" rx="90" ry="76"/>
    <rect class="fil1 str0" x="-11119" y="19167" width="1000" height="1000" rx="90" ry="76"/>
    <rect class="fil1 str0" x="-11119" y="17917" width="1000" height="1000" rx="90" ry="76"/>
    <rect class="fil1 str0" x="-11119" y="16667" width="1000" height="1000" rx="90" ry="76"/>
    <rect class="fil1 str0" x="-11119" y="15417" width="1000" height="1000" rx="90" ry="76"/>
    <rect class="fil1 str0" x="-11119" y="14167" width="1000" height="1000" rx="90" ry="76"/>
    <rect class="fil1 str0" x="-11119" y="12917" width="1000" height="1000" rx="90" ry="76"/>
    <rect class="fil1 str0" x="-12369" y="21667" width="1000" height="1000" rx="90" ry="76"/>
    <rect class="fil1 str0" x="-12369" y="20417" width="1000" height="1000" rx="90" ry="76"/>
    <rect class="fil1 str0" x="-12369" y="19167" width="1000" height="1000" rx="90" ry="76"/>
    <rect class="fil1 str0" x="-12369" y="17917" width="1000" height="1000" rx="90" ry="76"/>
    <rect class="fil1 str0" x="-12369" y="16667" width="1000" height="1000" rx="90" ry="76"/>
    <rect class="fil1 str0" x="-12369" y="15417" width="1000" height="1000" rx="90" ry="76"/>
    <rect class="fil1 str0" x="-12369" y="14167" width="1000" height="1000" rx="90" ry="76"/>
    <rect class="fil1 str0" x="-12369" y="12917" width="1000" height="1000" rx="90" ry="76"/>
    <rect class="fil1 str0" x="-13619" y="21667" width="1000" height="1000" rx="90" ry="76"/>
    <rect class="fil1 str0" x="-13619" y="20417" width="1000" height="1000" rx="90" ry="76"/>
    <rect class="fil1 str0" x="-13619" y="19167" width="1000" height="1000" rx="90" ry="76"/>
    <rect class="fil1 str0" x="-13619" y="17917" width="1000" height="1000" rx="90" ry="76"/>
    <rect class="fil1 str0" x="-13619" y="16667" width="1000" height="1000" rx="90" ry="76"/>
    <rect class="fil1 str0" x="-13619" y="15417" width="1000" height="1000" rx="90" ry="76"/>
    <rect class="fil1 str0" x="-13619" y="14167" width="1000" height="1000" rx="90" ry="76"/>
    <rect class="fil1 str0" x="-13619" y="12917" width="1000" height="1000" rx="90" ry="76"/>
    <rect class="fil1 str0" x="-14869" y="21667" width="1000" height="1000" rx="90" ry="76"/>
    <rect class="fil1 str0" x="-14869" y="20417" width="1000" height="1000" rx="90" ry="76"/>
    <rect class="fil1 str0" x="-14869" y="19167" width="1000" height="1000" rx="90" ry="76"/>
    <rect class="fil1 str0" x="-14869" y="17917" width="1000" height="1000" rx="90" ry="76"/>
    <rect class="fil1 str0" x="-14869" y="16667" width="1000" height="1000" rx="90" ry="76"/>
    <rect class="fil1 str0" x="-14869" y="15417" width="1000" height="1000" rx="90" ry="76"/>
    <rect class="fil1 str0" x="-14869" y="14167" width="1000" height="1000" rx="90" ry="76"/>
    <rect class="fil1 str0" x="-14869" y="12917" width="1000" height="1000" rx="90" ry="76"/>
    <rect class="fil1 str0" x="-16119" y="21667" width="1000" height="1000" rx="90" ry="76"/>
    <rect class="fil1 str0" x="-16119" y="20417" width="1000" height="1000" rx="90" ry="76"/>
    <rect class="fil1 str0" x="-16119" y="19167" width="1000" height="1000" rx="90" ry="76"/>
    <rect class="fil1 str0" x="-16119" y="17917" width="1000" height="1000" rx="90" ry="76"/>
    <rect class="fil1 str0" x="-16119" y="16667" width="1000" height="1000" rx="90" ry="76"/>
    <rect class="fil1 str0" x="-16119" y="15417" width="1000" height="1000" rx="90" ry="76"/>
    <rect class="fil1 str0" x="-16119" y="14167" width="1000" height="1000" rx="90" ry="76"/>
    <rect class="fil1 str0" x="-16119" y="12917" width="1000" height="1000" rx="90" ry="76"/>
    <rect class="fil1 str0" x="-17369" y="21667" width="1000" height="1000" rx="90" ry="76"/>
    <rect class="fil1 str0" x="-17369" y="20417" width="1000" height="1000" rx="90" ry="76"/>
    <rect class="fil1 str0" x="-17369" y="19167" width="1000" height="1000" rx="90" ry="76"/>
    <rect class="fil1 str0" x="-17369" y="17917" width="1000" height="1000" rx="90" ry="76"/>
    <rect class="fil1 str0" x="-17369" y="16667" width="1000" height="1000" rx="90" ry="76"/>
    <rect class="fil1 str0" x="-17369" y="15417" width="1000" height="1000" rx="90" ry="76"/>
    <rect class="fil1 str0" x="-17369" y="14167" width="1000" height="1000" rx="90" ry="76"/>
    <rect class="fil1 str0" x="-17369" y="12917" width="1000" height="1000" rx="90" ry="76"/>
    <rect class="fil1 str0" x="-18619" y="21667" width="1000" height="1000" rx="90" ry="76"/>
    <rect class="fil1 str0" x="-18619" y="20417" width="1000" height="1000" rx="90" ry="76"/>
    <rect class="fil1 str0" x="-18619" y="19167" width="1000" height="1000" rx="90" ry="76"/>
    <rect class="fil1 str0" x="-18619" y="17917" width="1000" height="1000" rx="90" ry="76"/>
    <rect class="fil1 str0" x="-18619" y="16667" width="1000" height="1000" rx="90" ry="76"/>
    <rect class="fil1 str0" x="-18619" y="15417" width="1000" height="1000" rx="90" ry="76"/>
    <rect class="fil1 str0" x="-18619" y="14167" width="1000" height="1000" rx="90" ry="76"/>
    <rect class="fil1 str0" x="-18619" y="12917" width="1000" height="1000" rx="90" ry="76"/>
    <rect class="fil1 str0" x="-19869" y="21667" width="1000" height="1000" rx="90" ry="76"/>
    <rect class="fil1 str0" x="-19869" y="20417" width="1000" height="1000" rx="90" ry="76"/>
    <rect class="fil1 str0" x="-19869" y="19167" width="1000" height="1000" rx="90" ry="76"/>
    <rect class="fil1 str0" x="-19869" y="17917" width="1000" height="1000" rx="90" ry="76"/>
    <rect class="fil1 str0" x="-19869" y="16667" width="1000" height="1000" rx="90" ry="76"/>
    <rect class="fil1 str0" x="-19869" y="15417" width="1000" height="1000" rx="90" ry="76"/>
    <rect class="fil1 str0" x="-19869" y="14167" width="1000" height="1000" rx="90" ry="76"/>
    <rect class="fil1 str0" x="-19869" y="12917" width="1000" height="1000" rx="90" ry="76"/>
    <rect class="fil1 str0" x="-21119" y="21667" width="1000" height="1000" rx="90" ry="76"/>
    <rect class="fil1 str0" x="-21119" y="20417" width="1000" height="1000" rx="90" ry="76"/>
    <rect class="fil1 str0" x="-21119" y="19167" width="1000" height="1000" rx="90" ry="76"/>
    <rect class="fil1 str0" x="-21119" y="17917" width="1000" height="1000" rx="90" ry="76"/>
    <rect class="fil1 str0" x="-21119" y="16667" width="1000" height="1000" rx="90" ry="76"/>
    <rect class="fil1 str0" x="-21119" y="15417" width="1000" height="1000" rx="90" ry="76"/>
    <rect class="fil1 str0" x="-21119" y="14167" width="1000" height="1000" rx="90" ry="76"/>
    <rect class="fil1 str0" x="-21119" y="12917" width="1000" height="1000" rx="90" ry="76"/>
    <rect class="fil1 str0" x="-22369" y="21667" width="1000" height="1000" rx="90" ry="76"/>
    <rect class="fil1 str0" x="-22369" y="20417" width="1000" height="1000" rx="90" ry="76"/>
    <rect class="fil1 str0" x="-22369" y="19167" width="1000" height="1000" rx="90" ry="76"/>
    <rect class="fil1 str0" x="-22369" y="17917" width="1000" height="1000" rx="90" ry="76"/>
    <rect class="fil1 str0" x="-22369" y="16667" width="1000" height="1000" rx="90" ry="76"/>
    <rect class="fil1 str0" x="-22369" y="15417" width="1000" height="1000" rx="90" ry="76"/>
    <rect class="fil1 str0" x="-22369" y="14167" width="1000" height="1000" rx="90" ry="76"/>
    <rect class="fil1 str0" x="-22369" y="12917" width="1000" height="1000" rx="90" ry="76"/>
    <rect class="fil1 str0" x="-23619" y="21667" width="1000" height="1000" rx="90" ry="76"/>
    <rect class="fil1 str0" x="-23619" y="20417" width="1000" height="1000" rx="90" ry="76"/>
    <rect class="fil1 str0" x="-23619" y="19167" width="1000" height="1000" rx="90" ry="76"/>
    <rect class="fil1 str0" x="-23619" y="17917" width="1000" height="1000" rx="90" ry="76"/>
    <rect class="fil1 str0" x="-23619" y="16667" width="1000" height="1000" rx="90" ry="76"/>
    <rect class="fil1 str0" x="-23619" y="15417" width="1000" height="1000" rx="90" ry="76"/>
    <rect class="fil1 str0" x="-23619" y="14167" width="1000" height="1000" rx="90" ry="76"/>
    <rect class="fil1 str0" x="-23619" y="12917" width="1000" height="1000" rx="90" ry="76"/>
    <rect class="fil1 str0" x="-24869" y="21667" width="1000" height="1000" rx="90" ry="76"/>
    <rect class="fil1 str0" x="-24869" y="20417" width="1000" height="1000" rx="90" ry="76"/>
    <rect class="fil1 str0" x="-24869" y="19167" width="1000" height="1000" rx="90" ry="76"/>
    <rect class="fil1 str0" x="-24869" y="17917" width="1000" height="1000" rx="90" ry="76"/>
    <rect class="fil1 str0" x="-24869" y="16667" width="1000" height="1000" rx="90" ry="76"/>
    <rect class="fil1 str0" x="-24869" y="15417" width="1000" height="1000" rx="90" ry="76"/>
    <rect class="fil1 str0" x="-24869" y="14167" width="1000" height="1000" rx="90" ry="76"/>
    <rect class="fil1 str0" x="-24869" y="12917" width="1000" height="1000" rx="90" ry="76"/>
   </g>
  </g>
  <polygon class="fil0" points="-21286,85088 -21286,83269 -21045,83269 -21045,84018 -20105,84018 -20105,83269 -19864,83269 -19864,85088 -20105,85088 -20105,84232 -21045,84232 -21045,85088 "/>
  <path id="1" class="fil0" d="M-19574 84429c0,-244 68,-424 204,-541 113,-98 251,-146 414,-146 181,0 329,59 444,177 115,118 173,282 173,491 0,169 -26,302 -77,399 -50,97 -125,172 -222,226 -97,54 -203,81 -318,81 -184,0 -333,-59 -447,-177 -114,-118 -171,-289 -171,-510zm229 0c0,168 37,295 110,378 74,84 167,126 279,126 111,0 203,-42 277,-126 74,-85 111,-213 111,-385 0,-163 -37,-286 -111,-369 -74,-84 -167,-126 -277,-126 -112,0 -205,41 -279,125 -73,83 -110,209 -110,377z"/>
  <polygon id="2" class="fil0" points="-18082,85088 -18082,83269 -17859,83269 -17859,85088 "/>
  <path id="3" class="fil0" d="M-17631 85088l0 -182 835 -964c-95,5 -179,8 -251,8l-533 0 0 -181 1074 0 0 147 -715 836 -136 155c100,-8 194,-12 282,-12l610 0 0 193 -1166 0z"/>
  <path id="4" class="fil0" d="M-16185 85088l0 -254 254 0 0 254c0,93 -16,169 -50,227 -33,57 -86,102 -158,133l-61 -96c47,-21 82,-51 104,-91 23,-40 35,-98 38,-173l-127 0z"/>
  <path id="5" class="fil0" d="M-14893 84605l224 -30c26,127 69,218 130,274 62,56 137,84 226,84 106,0 195,-37 267,-109 72,-73 108,-163 108,-271 0,-102 -33,-187 -100,-254 -67,-66 -152,-100 -256,-100 -42,0 -95,9 -158,25l25 -195c15,1 27,2 36,2 96,0 181,-25 258,-74 76,-50 114,-126 114,-229 0,-82 -28,-149 -83,-203 -56,-54 -127,-81 -215,-81 -87,0 -160,28 -218,83 -58,55 -95,137 -111,248l-224 -41c28,-150 90,-266 186,-349 97,-82 218,-124 362,-124 99,0 190,22 273,64 84,43 148,101 192,174 45,74 67,151 67,234 0,78 -21,149 -63,214 -43,64 -105,115 -188,154 108,24 191,76 251,154 59,78 89,176 89,293 0,159 -58,294 -174,405 -116,110 -262,165 -439,165 -160,0 -292,-48 -398,-143 -106,-95 -166,-218 -181,-370z"/>
  <path id="6" class="fil0" d="M-13419 85088l0 -1319 201 0 0 187c41,-65 96,-117 164,-156 69,-39 147,-58 234,-58 98,0 178,20 240,60 62,41 106,97 132,170 105,-154 241,-230 408,-230 131,0 233,35 303,108 71,72 106,184 106,334l0 904 -223 0 0 -830c0,-89 -8,-153 -22,-193 -15,-39 -41,-70 -80,-94 -38,-25 -83,-36 -134,-36 -93,0 -170,30 -231,92 -62,62 -92,160 -92,296l0 765 -224 0 0 -856c0,-99 -18,-173 -54,-223 -37,-49 -96,-74 -179,-74 -63,0 -121,16 -174,49 -53,33 -92,81 -116,145 -24,64 -36,156 -36,275l0 684 -223 0z"/>
  <path id="7" class="fil0" d="M-11303 85088l0 -1319 200 0 0 187c41,-65 97,-117 165,-156 69,-39 147,-58 234,-58 98,0 178,20 240,60 62,41 106,97 131,170 105,-154 241,-230 409,-230 131,0 232,35 303,108 70,72 106,184 106,334l0 904 -224 0 0 -830c0,-89 -7,-153 -22,-193 -14,-39 -40,-70 -79,-94 -38,-25 -83,-36 -134,-36 -93,0 -170,30 -232,92 -61,62 -91,160 -91,296l0 765 -224 0 0 -856c0,-99 -18,-173 -55,-223 -36,-49 -96,-74 -178,-74 -63,0 -121,16 -174,49 -53,33 -92,81 -116,145 -24,64 -36,156 -36,275l0 684 -223 0z"/>
  <path id="8" class="fil0" d="M-20214 87712l0 213 -1204 0c-2,-53 7,-105 26,-155 31,-82 80,-163 148,-242 69,-79 166,-170 293,-274 196,-162 330,-290 400,-385 70,-95 105,-185 105,-270 0,-88 -31,-163 -95,-223 -63,-61 -146,-92 -248,-92 -108,0 -195,33 -259,97 -65,64 -98,153 -99,267l-228 -23c15,-171 75,-302 177,-391 103,-90 241,-135 414,-135 174,0 313,48 414,145 102,97 153,217 153,361 0,72 -15,144 -45,214 -29,71 -79,145 -148,223 -69,77 -184,184 -344,320 -134,112 -221,189 -259,229 -38,40 -69,80 -94,121l893 0z"/>
  <path id="9" class="fil0" d="M-19973 87028c0,-215 22,-388 66,-520 45,-131 110,-232 198,-303 86,-71 196,-106 328,-106 98,0 183,20 257,59 74,39 135,96 182,170 48,74 85,164 112,270 27,106 41,250 41,430 0,213 -22,386 -66,517 -43,132 -109,233 -196,304 -87,71 -197,107 -330,107 -175,0 -312,-62 -412,-187 -120,-153 -180,-400 -180,-741zm229 1c0,299 35,498 104,596 70,99 157,148 259,148 103,0 189,-50 259,-148 70,-99 104,-298 104,-596 0,-300 -34,-499 -104,-597 -70,-98 -157,-148 -261,-148 -103,0 -185,44 -246,131 -77,110 -115,315 -115,614z"/>
  <path id="10" class="fil0" d="M-18519 86543c0,-129 32,-240 98,-330 65,-91 160,-137 285,-137 114,0 209,41 284,122 75,81 112,201 112,359 0,153 -38,272 -113,355 -76,83 -170,124 -281,124 -110,0 -202,-41 -275,-122 -74,-82 -110,-206 -110,-371zm389 -312c-55,0 -101,24 -138,72 -37,48 -56,135 -56,263 0,116 19,197 56,244 37,48 83,71 138,71 56,0 103,-23 140,-71 37,-48 55,-135 55,-262 0,-117 -19,-199 -56,-246 -37,-47 -83,-71 -139,-71zm1 1760l992 -1915 182 0 -989 1915 -185 0zm783 -493c0,-130 33,-241 98,-331 66,-90 161,-136 286,-136 114,0 209,41 284,122 75,81 112,201 112,359 0,153 -38,272 -114,355 -75,83 -169,124 -281,124 -110,0 -202,-41 -275,-123 -73,-82 -110,-206 -110,-370zm390 -312c-56,0 -102,24 -139,72 -37,48 -55,135 -55,263 0,115 18,196 56,244 36,48 82,71 137,71 57,0 103,-23 140,-71 37,-48 55,-135 55,-262 0,-117 -18,-199 -56,-246 -36,-47 -83,-71 -138,-71z"/>
  <path id="11" class="fil0" d="M-15624 87532l221 -36c12,89 47,156 104,204 57,47 136,70 238,70 103,0 179,-20 229,-62 49,-42 74,-91 74,-147 0,-51 -22,-90 -67,-119 -31,-20 -107,-45 -228,-76 -164,-41 -277,-77 -340,-107 -63,-30 -111,-72 -144,-125 -32,-53 -49,-112 -49,-176 0,-59 14,-113 41,-163 27,-50 63,-91 109,-124 35,-26 82,-47 142,-65 60,-18 124,-27 193,-27 103,0 194,15 271,45 79,30 136,70 174,121 36,51 62,119 76,205l-218 30c-10,-68 -39,-122 -86,-160 -48,-39 -115,-58 -201,-58 -102,0 -176,17 -219,51 -44,34 -66,73 -66,119 0,29 9,55 27,78 19,24 47,44 86,59 22,9 87,28 197,57 157,42 267,77 330,104 63,26 112,66 147,117 36,51 54,114 54,191 0,74 -22,143 -65,209 -44,66 -106,117 -188,153 -82,35 -175,53 -278,53 -171,0 -302,-35 -392,-106 -90,-71 -147,-176 -172,-315z"/>
  <path id="12" class="fil0" d="M-14265 88431l0 -1824 203 0 0 173c48,-67 102,-117 163,-150 60,-34 133,-51 219,-51 113,0 212,29 298,87 86,57 150,139 195,244 43,106 65,221 65,346 0,135 -24,256 -72,364 -49,107 -119,190 -211,247 -92,57 -189,86 -290,86 -75,0 -142,-15 -201,-47 -59,-31 -107,-70 -145,-118l0 643 -224 0zm203 -1157c0,169 35,294 103,375 68,81 151,121 249,121 99,0 183,-42 254,-125 70,-84 106,-214 106,-389 0,-168 -35,-293 -104,-377 -69,-83 -151,-125 -247,-125 -94,0 -178,45 -251,133 -73,89 -110,218 -110,387z"/>
  <path id="13" class="fil0" d="M-11953 87499l231 30c-36,134 -103,239 -201,313 -99,74 -224,111 -377,111 -192,0 -344,-59 -457,-178 -113,-118 -169,-284 -169,-498 0,-221 57,-393 171,-515 114,-122 261,-183 443,-183 176,0 319,60 430,180 112,119 168,288 168,505 0,13 -1,33 -2,59l-981 0c8,145 49,256 123,332 73,77 165,115 274,115 82,0 152,-21 209,-64 58,-44 104,-113 138,-207zm-732 -359l734 0c-9,-110 -38,-193 -84,-249 -70,-86 -163,-129 -276,-129 -102,0 -188,34 -258,103 -69,68 -108,160 -116,275z"/>
  <path id="14" class="fil0" d="M-10540 87499l231 30c-36,134 -104,239 -202,313 -98,74 -223,111 -376,111 -192,0 -345,-59 -457,-178 -113,-118 -169,-284 -169,-498 0,-221 57,-393 170,-515 114,-122 262,-183 444,-183 175,0 319,60 430,180 111,119 167,288 167,505 0,13 0,33 -1,59l-982 0c9,145 50,256 123,332 73,77 165,115 275,115 82,0 151,-21 209,-64 58,-44 104,-113 138,-207zm-732 -359l734 0c-10,-110 -38,-193 -84,-249 -71,-86 -163,-129 -276,-129 -103,0 -188,34 -258,103 -70,68 -108,160 -116,275z"/>
  <path id="15" class="fil0" d="M-9176 87925l0 -167c-83,130 -206,195 -368,195 -105,0 -202,-29 -289,-87 -88,-57 -157,-138 -205,-241 -49,-104 -73,-223 -73,-358 0,-131 22,-250 66,-357 44,-107 110,-189 197,-245 87,-58 186,-86 294,-86 79,0 150,17 212,51 61,33 112,77 151,131l0 -654 223 0 0 1818 -208 0zm-706 -657c0,168 35,294 107,378 71,83 155,124 252,124 98,0 181,-39 250,-119 68,-80 102,-201 102,-364 0,-180 -35,-312 -104,-396 -70,-85 -156,-126 -258,-126 -99,0 -182,40 -249,121 -67,80 -100,208 -100,382z"/>
  <path id="16" class="fil0" d="M-8556 87925l0 -254 254 0 0 254c0,94 -16,170 -50,227 -33,58 -86,103 -158,134l-61 -97c47,-20 82,-51 104,-91 23,-40 35,-97 38,-173l-127 0z"/>
  <path id="17" class="fil0" d="M-6426 87925l-223 0 0 -1423c-54,52 -125,103 -212,154 -87,51 -166,90 -235,115l0 -216c125,-58 234,-129 328,-213 93,-83 160,-164 198,-243l144 0 0 1826z"/>
  <path id="18" class="fil0" d="M-5851 87028c0,-215 22,-388 66,-520 44,-131 110,-232 197,-303 87,-71 197,-106 329,-106 97,0 183,20 257,59 73,39 134,96 182,170 47,74 84,164 111,270 28,106 42,250 42,430 0,213 -22,386 -66,517 -44,132 -109,233 -197,304 -86,71 -196,107 -329,107 -175,0 -313,-62 -413,-187 -119,-153 -179,-400 -179,-741zm228 1c0,299 35,498 105,596 70,99 156,148 259,148 102,0 189,-50 258,-148 70,-99 105,-298 105,-596 0,-300 -35,-499 -105,-597 -69,-98 -156,-148 -261,-148 -102,0 -184,44 -246,131 -76,110 -115,315 -115,614z"/>
  <path id="19" class="fil0" d="M-4438 87028c0,-215 22,-388 66,-520 44,-131 110,-232 197,-303 87,-71 196,-106 328,-106 98,0 183,20 257,59 74,39 135,96 182,170 48,74 85,164 112,270 28,106 41,250 41,430 0,213 -22,386 -65,517 -44,132 -110,233 -197,304 -87,71 -197,107 -330,107 -174,0 -312,-62 -412,-187 -120,-153 -179,-400 -179,-741zm228 1c0,299 35,498 105,596 70,99 156,148 258,148 103,0 189,-50 259,-148 70,-99 105,-298 105,-596 0,-300 -35,-499 -105,-597 -69,-98 -157,-148 -261,-148 -103,0 -185,44 -246,131 -77,110 -115,315 -115,614z"/>
  <path id="20" class="fil0" d="M-2985 86543c0,-129 32,-240 98,-330 66,-91 160,-137 285,-137 114,0 209,41 284,122 75,81 113,201 113,359 0,153 -38,272 -114,355 -76,83 -170,124 -281,124 -110,0 -202,-41 -275,-122 -73,-82 -110,-206 -110,-371zm389 -312c-55,0 -101,24 -138,72 -37,48 -56,135 -56,263 0,116 19,197 56,244 38,48 84,71 138,71 57,0 103,-23 140,-71 37,-48 55,-135 55,-262 0,-117 -19,-199 -56,-246 -37,-47 -83,-71 -139,-71zm2 1760l991 -1915 182 0 -989 1915 -184 0zm782 -493c0,-130 33,-241 99,-331 65,-90 160,-136 285,-136 114,0 209,41 284,122 75,81 112,201 112,359 0,153 -38,272 -113,355 -76,83 -170,124 -282,124 -110,0 -201,-41 -275,-123 -73,-82 -110,-206 -110,-370zm390 -312c-56,0 -102,24 -139,72 -37,48 -55,135 -55,263 0,115 19,196 56,244 37,48 82,71 137,71 57,0 104,-23 140,-71 37,-48 56,-135 56,-262 0,-117 -19,-199 -56,-246 -37,-47 -83,-71 -139,-71z"/>
  <path id="21" class="fil0" d="M-1 88431l0 -1824 204 0 0 173c47,-67 102,-117 162,-150 60,-34 133,-51 219,-51 113,0 212,29 298,87 86,57 151,139 195,244 43,106 65,221 65,346 0,135 -24,256 -72,364 -48,107 -119,190 -211,247 -92,57 -189,86 -290,86 -75,0 -142,-15 -201,-47 -59,-31 -107,-70 -145,-118l0 643 -224 0zm204 -1157c0,169 34,294 102,375 69,81 152,121 249,121 99,0 184,-42 254,-125 71,-84 106,-214 106,-389 0,-168 -35,-293 -104,-377 -69,-83 -151,-125 -246,-125 -95,0 -179,45 -252,133 -73,89 -109,218 -109,387z"/>
  <path id="22" class="fil0" d="M1328 87266c0,-243 68,-424 204,-541 113,-97 251,-146 414,-146 181,0 329,59 444,178 115,118 173,282 173,491 0,169 -26,302 -77,399 -50,97 -124,172 -222,226 -97,54 -203,80 -318,80 -184,0 -333,-59 -447,-177 -114,-118 -171,-288 -171,-510zm229 1c0,168 37,294 110,378 74,83 167,125 279,125 111,0 203,-42 278,-126 73,-84 110,-212 110,-385 0,-162 -37,-285 -111,-369 -74,-84 -167,-125 -277,-125 -112,0 -205,41 -279,124 -73,84 -110,210 -110,378z"/>
  <path id="23" class="fil0" d="M3062 87925l-399 -1318 234 0 210 761 75 283c3,-14 26,-105 68,-272l209 -772 229 0 198 765 65 251 76 -254 228 -762 217 0 -414 1318 -231 0 -209 -788 -53 -226 -267 1014 -236 0z"/>
  <path id="24" class="fil0" d="M5558 87499l231 30c-36,134 -103,239 -201,313 -98,74 -224,111 -377,111 -192,0 -344,-59 -457,-178 -112,-118 -169,-284 -169,-498 0,-221 57,-393 171,-515 114,-122 262,-183 443,-183 176,0 319,60 431,180 111,119 167,288 167,505 0,13 -1,33 -1,59l-982 0c8,145 49,256 123,332 73,77 165,115 274,115 82,0 152,-21 210,-64 58,-44 103,-113 137,-207zm-731 -359l734 0c-10,-110 -38,-193 -85,-249 -70,-86 -163,-129 -276,-129 -102,0 -188,34 -258,103 -69,68 -108,160 -115,275z"/>
  <path id="25" class="fil0" d="M6069 87925l0 -1318 201 0 0 202c51,-94 98,-155 142,-185 44,-30 91,-45 143,-45 76,0 152,24 230,71l-79 206c-54,-30 -109,-46 -163,-46 -48,0 -92,15 -131,44 -38,30 -66,70 -82,122 -25,79 -37,166 -37,261l0 688 -224 0z"/>
  <g id="_784671200">
   <rect class="fil1 str0" x="-24288" y="124574" width="30000" height="4000" rx="550" ry="500"/>
   <circle class="fil1 str0" cx="-20288" cy="127574" r="150"/>
   <circle class="fil1 str0" cx="-20288" cy="125574" r="150"/>
   <circle class="fil1 str0" cx="-9288" cy="127574" r="150"/>
   <circle class="fil1 str0" cx="1712" cy="127574" r="150"/>
   <circle class="fil1 str0" cx="-9288" cy="125574" r="150"/>
   <circle class="fil1 str0" cx="1712" cy="125574" r="150"/>
  </g>
  <g id="_784672480">
   <rect class="fil1 str0" x="-24288" y="128574" width="30000" height="4000" rx="550" ry="500"/>
   <circle class="fil1 str0" cx="-20288" cy="131574" r="150"/>
   <circle class="fil1 str0" cx="-20288" cy="129574" r="150"/>
   <circle class="fil1 str0" cx="-9288" cy="131574" r="150"/>
   <circle class="fil1 str0" cx="1712" cy="131574" r="150"/>
   <circle class="fil1 str0" cx="-9288" cy="129574" r="150"/>
   <circle class="fil1 str0" cx="1712" cy="129574" r="150"/>
  </g>
 </g>
</svg>
